<svg xmlns="http://www.w3.org/2000/svg" width="60mm" height="61.799" viewBox="0 0 60 16.351">
    <defs>
        <path id="b" d="M65.294 13.283h97.108v14.248H65.294z"/>
        <path id="a" d="M65.294 13.283h104.715v14.375H65.294z"/>
    </defs>
    <path d="M7715 15994c-27-2-129-8-225-14-1653-102-3257-734-4544-1789-901-739-1626-1653-2131-2686-450-922-709-1878-790-2918-71-908 28-1881 284-2777 553-1937 1830-3606 3562-4656C5467 187 7365-189 9216 96c1928 296 3671 1285 4935 2799 766 917 1333 2038 1613 3187 155 640 225 1195 231 1853 3 323 0 408-25 725-130 1629-781 3208-1845 4475-241 287-576 630-850 870-653 573-1392 1036-2185 1369-795 335-1612 531-2500 601-184 15-766 27-875 19zm875-144c430-37 734-83 1115-166 2327-508 4343-2106 5386-4270 456-946 708-1926 770-2994 13-227 7-798-11-1015-125-1535-656-2934-1572-4147-743-985-1745-1808-2850-2342C10048 249 8537 1 7015 191 5661 360 4384 878 3284 1703 1905 2738 905 4188 430 5842 142 6848 60 7917 190 8980c177 1446 775 2842 1707 3983 724 887 1616 1598 2628 2096 980 483 1972 741 3095 805 128 7 847-3 970-14z" style="fill:#1e528c;fill-opacity:1" transform="matrix(.001 0 0 -.001 .17 16.237)"/>
    <path d="M8256 15584c-103-37-157-115-164-235l-5-79h-47c-46 0-48-1-52-31-5-35 0-39 58-42l39-3-4-275c-3-298-6-313-59-325-46-10-53-14-47-24 8-12 415-14 415-1 0 5-14 11-32 15-68 13-68 14-68 270 0 127 3 255 6 284l7 52h97v70h-100v134c0 148 8 170 59 164 24-3 26-6 26-56 0-44 4-57 24-73 37-30 96-25 132 10 16 16 29 39 29 51 0 34-36 76-80 94-50 20-180 20-234 0zM9926 15315c-160-41-302-154-369-295-61-129-72-239-38-373 44-171 171-294 370-358 87-28 106-30 201-27 97 3 111 6 183 40 42 20 77 43 77 50s3 24 7 36c6 24 6 24-53-7-91-47-140-61-213-61-241 0-362 153-331 419 21 177 79 312 174 406 48 48 73 65 120 79 74 23 175 18 239-13 99-48 174-160 185-279 7-70 27-93 38-45 3 15 24 90 45 167 22 76 39 140 39 142 0 12-26 0-46-21-13-14-32-25-42-25-11 0-61 28-112 61-50 34-124 73-163 86-89 31-226 39-311 18zM7135 15223c-101-37-158-98-196-210-32-96-24-225 19-316 63-135 156-200 287-200 93-1 162 23 223 78 185 167 129 538-97 638-64 28-171 33-236 10zm150-67c39-41 50-83 70-253 22-191 20-272-8-314-19-29-30-34-66-37-72-5-103 40-131 193-18 101-25 349-10 385 28 68 94 80 145 26zM5653 14873c-54-20-93-41-93-49 0-10 9-12 29-8 41 8 68-10 81-54 5-20 10-113 10-207l-1-170-139 142c-77 79-142 154-146 168-5 19-1 32 16 51 13 13 20 27 17 31-10 9-348-120-344-132 2-5 21-14 43-18 34-8 75-45 297-270l258-262-3-105c-3-58-10-115-17-127-19-36-47-28-73 19-30 54-64 68-112 46-46-22-63-72-42-121 43-104 196-96 255 12 28 51 29 69 39 648 7 377 7 382 30 405 46 49 21 50-105 1zM11063 14576c-179-58-306-278-272-471 27-156 167-262 334-253 84 5 129 24 199 89 128 117 180 326 116 463-27 56-106 131-167 158-58 26-155 32-210 14zm202-68c28-13 55-55 55-86 0-67-156-395-221-464-29-31-43-38-73-38-82 0-109 84-65 200 34 91 150 310 182 347 45 51 77 62 122 41zM4625 14451c-17-10-38-29-47-43-21-33-48-123-48-164 0-53-13-47-50 22-19 35-37 63-40 61-3-1-58-31-122-67-123-68-148-95-79-84 35 6 40 3 63-27 14-19 49-77 78-129s79-143 111-202c82-147 87-163 60-198-42-58-28-54 116 26 207 116 206 115 195 126-6 6-17 6-32-2-43-23-66-5-125 94-124 211-161 330-121 392 17 24 21 25 77 19 56-7 60-6 89 23 33 34 37 56 16 106-26 63-84 83-141 47zM12000 14152c0-5 7-23 16-41 15-30 14-34-5-66-11-20-58-86-104-148-45-61-106-143-134-182-76-104-95-119-137-111-19 4-37 3-40-2s60-56 139-115c80-58 147-102 150-97 3 4-2 21-12 37-15 27-15 32 0 61 32 65 260 364 284 373 13 5 46 9 73 9 96 0 120-58 60-146-88-128-261-354-279-363-10-6-33-8-50-5-18 4-31 2-31-3 0-12 257-204 282-211 22-5 23 6 2 29-37 41-19 73 193 354 61 80 72 91 108 97 53 9 98 1 124-23 43-40 33-59-173-340-103-139-121-154-171-145-21 4-35 3-35-3 0-15 281-222 291-215 5 3 2 18-7 33-10 17-14 38-11 53 4 13 61 98 128 188 66 91 134 191 150 222 49 97 37 164-42 231-52 45-119 62-206 53l-65-7 6 36c14 73-34 153-119 198-32 17-56 22-117 21-43 0-78 1-78 4 0 2 9 15 20 29s20 29 20 33c0 8-213 170-224 170-3 0-6-4-6-8z" style="fill:#1e528c;fill-opacity:1" transform="matrix(.001 0 0 -.001 .17 16.237)"/>
    <path d="M7725 14144c-632-34-1254-161-1825-374-224-84-419-169-630-276-183-92-217-111-435-242-639-384-1266-958-1727-1582-227-307-390-572-557-907-377-756-585-1535-637-2390-5-93-4-113 7-113 23 0 191 28 195 33 3 2 0 16-6 31-20 53-4 279 41 581 108 731 364 1462 737 2100 96 165 127 204 193 240 47 26 65 29 134 30h80l110-63c291-166 651-332 1005-463 119-44 153-61 191-97 89-82 109-180 70-342-125-523-215-1184-240-1766-10-230-22-271-94-342-81-79-59-76-636-82l-514-5 221-92 221-93h288c282 0 289-1 338-24 88-42 164-145 165-222 0-83 5-88 105-132l94-40-2 107c-2 101 0 109 28 160 56 102 142 151 264 151h66l-31 19c-36 22-60 54-98 129-22 43-35 57-70 72-93 40-151 122-163 233-3 29-16 75-29 102-13 28-28 71-32 96-5 26-18 62-29 80-30 49-35 84-23 174 6 52 20 101 40 141 27 54 36 64 80 83 28 12 50 25 50 30 0 26 55 441 76 576 33 213 93 520 123 633 29 105 123 186 238 206 30 5 122-6 165-20 17-5 18-3 9 14-6 12-11 36-11 54-1 18-9 51-20 73s-20 47-20 55c-1 8-23 31-51 50-67 47-109 129-109 211 0 63 27 146 143 439 450 1137 1144 1998 1907 2367 169 81 371 151 492 168 65 10 140-10 195-52l45-34 23 21c13 12 40 28 61 35 35 12 40 11 69-11 24-18 39-22 67-18 29 5 41 1 68-24l34-29 25 30c34 40 135 87 187 87 54 0 210-41 333-86 334-125 657-340 965-642 201-198 379-414 553-673 97-144 115-173 228-369 205-356 505-1072 505-1204 0-111-64-214-160-255-81-35-481-126-790-180-283-50-704-104-977-126-46-4-81-11-78-15 3-5 7-28 9-52 6-62 27-75 127-77 46-1 89-7 96-13 16-13 170 0 461 42 406 57 697 112 1042 196 204 51 282 47 371-16 76-55 105-134 173-474l31-159 99-24c55-13 100-22 102-21 3 4-60 337-96 498-38 172-37 244 3 312 51 87 79 104 315 193 95 36 210 81 255 101 45 19 105 45 132 57 94 40 460 226 545 277 97 57 134 70 205 70 57 0 144-36 188-78 43-41 177-271 302-517 109-217 222-480 292-678 102-295 183-595 238-887 54-289 91-613 83-738-2-37-12-83-22-103-25-52-83-108-141-135l-50-24h-598c-565 0-598-1-593-17 2-10 7-53 11-95l7-78h578c561 0 581-1 635-21 71-27 134-89 159-159 16-45 18-70 13-174-4-66-18-199-32-295-19-126-23-176-14-181 13-9 170-23 176-16 9 8 42 282 58 475 21 250 21 715 0 961-111 1314-619 2522-1479 3515-174 202-339 368-601 605-216 195-621 488-910 657-805 472-1625 737-2560 828-152 15-694 27-850 19zm-1914-731c128-69 183-237 120-362-12-22-57-86-102-143-351-448-667-1048-896-1698-73-209-101-251-198-296-72-34-145-32-258 7-333 115-939 406-1023 493-59 60-79 112-78 201 0 91 11 118 82 205 189 234 536 578 792 787 259 212 612 454 850 585 36 19 91 50 122 67 122 67 343 173 383 184 48 14 155-2 206-30zm4646 21c46-15 311-145 423-207 603-332 1197-815 1640-1332 119-139 150-195 150-276 0-116-53-201-168-268-197-114-557-286-792-376-52-20-110-43-129-51-191-85-370-13-432 174-12 37-52 148-89 247-221 587-496 1100-819 1523-121 159-139 188-151 248-43 208 162 386 367 318z" style="fill:#0b72ba;fill-opacity:1;stroke:#0b72ba;stroke-opacity:1" transform="matrix(.001 0 0 -.001 .17 16.237)"/>
    <path d="M3549 14070c0-3-2-63-4-135-2-94-9-152-24-209-12-44-18-83-13-88 4-4 23 3 42 17s35 25 36 25 19-24 40-52c188-259 267-359 296-374 75-39 173-14 232 60 27 33 31 47 34 112 4 63 2 74-12 74-12 0-16-9-16-34 0-49-37-91-72-83-38 10-335 412-318 431 6 8 35 31 65 52 56 38 60 51 21 83-13 11-25 5-75-33-33-25-63-46-68-46-4 1-30 31-56 69-53 74-105 139-108 131z" style="fill:#1e528c;fill-opacity:1" transform="matrix(.001 0 0 -.001 .17 16.237)"/>
    <path d="M7936 13710c-9-22-16-52-16-66 0-15-12-36-29-52-39-35-51-98-26-136 29-44 3-136-38-136-23 0-71-31-117-75-14-13-46-44-72-68-35-33-46-49-42-64 3-12 1-31-6-43-10-18-7-28 19-69 17-26 42-58 57-72 14-13 39-49 55-80 27-54 27-57 10-73-24-22-30-21-125 24-81 38-85 42-91 79-8 51-35 77-64 62-11-6-31-11-45-11s-26-5-26-11c0-9-21-10-73-6-56 5-78 3-93-8-10-8-26-15-35-15-33 0-127-65-148-101-26-45-52-68-87-78-16-4-38-21-49-39-11-17-26-31-32-32-7 0-22-9-33-20s-35-23-53-27c-19-3-43-19-60-39s-44-38-66-44c-21-6-44-17-51-25s-24-15-39-15c-18 0-36-12-59-40-31-38-32-41-18-69 14-26 14-30-5-47-14-13-19-26-15-44 16-80 32-127 48-138 36-26 10-103-42-121-31-10-31-11-25-66 7-50 5-59-21-98-50-75-125-157-144-157-39 0-82-44-101-103-23-67-18-79 36-97 40-13 48-31 36-79-5-20-12-57-15-82-5-30-15-54-31-69-14-13-25-29-25-37 0-7-13-27-30-45-16-17-30-36-30-42s-18-35-40-65c-22-29-45-71-51-94s-15-46-19-52c-7-9-25-55-90-230-10-27-24-69-30-93-10-40-13-42-29-30-10 7-38 28-62 46-30 23-50 31-64 27-59-19-72-17-94 14-26 37-56 40-103 11-49-30-72-25-112 22-27 32-39 39-48 30s-7-21 5-49c27-62 40-142 42-258 1-78-2-117-12-132-7-12-13-38-13-58 0-62-31-175-55-203l-23-27-31 23c-16 12-34 22-39 22s-7-21-5-47c4-34-1-64-16-101-20-49-20-55-5-84 10-20 14-42 9-64-4-23 0-45 13-71 33-64 36-114 13-166-12-25-21-51-21-56 0-15-23-14-38 1-9 9-12 6-12-14 0-14-6-28-14-31s-16-18-18-33c-2-21-14-33-47-51-56-29-60-29-68 7-6 32-58 84-74 74-5-3-9-14-9-24 0-13-9-22-25-26-31-8-32-18-40-239l-6-170 25-34c32-43 32-55 1-75-36-24-48-20-70 22-17 29-26 36-46 34-17-1-35 7-55 28-16 16-37 30-46 30-25 0-46-48-57-125-9-62-8-71 14-114 13-25 34-90 47-144 21-94 24-100 62-125 23-16 43-39 47-54 4-16 25-48 46-72 22-25 45-63 53-85 15-48 20-46 30 9 5 28 3 45-6 57-7 10-14 29-14 43s-9 39-20 55c-23 35-26 65-7 65 15 0 31-26 50-85 10-27 21-41 34-43 15-2 24-15 32-46 6-23 20-51 31-61 25-23 26-35 2-35-31 0-64-43-57-73 11-41 32-53 56-32 36 34 60 84 69 147 6 39 16 69 29 82 28 27 39 12 18-23-21-36-21-45-2-38 28 11 26-13-6-52-28-36-41-82-26-97 3-4 16 1 29 10 30 21 38 20 38-5 0-13-11-25-35-35-19-8-35-21-35-30 0-25 58-144 70-144 7 0 8 6 0 19-5 11-10 29-10 41 0 31 24 20 28-13 3-25 32-61 32-39 0 6-4 14-10 17-5 3-10 17-10 31s-7 36-16 49c-19 29-18 29 43 13 41-10 47-9 60 8 8 11 17 15 21 9s14-10 22-10 16-10 18-22c5-35 28-48 59-34 23 10 25 10 21-6-4-21 38-67 48-52 3 6 15 9 25 6s22-1 25 4 14 9 25 9c15 0 20-6 17-22-2-14-10-23-20-23s-25-10-33-23c-9-12-23-22-31-22s-14-4-14-10c0-5 6-10 14-10s16-5 18-12c3-8 11-7 28 5 14 9 30 17 37 17 18 0 16-25-2-40-27-22-4-31 23-9 25 19 27 20 31 3 2-11-8-27-25-41l-29-22 35-36c19-20 49-43 65-50 57-26 68-41 61-78-4-19-19-48-35-65-29-30-29-30-13-66 27-61 52-43 52 39 0 27 7 51 19 66 25 31 37 18 21-20-6-16-9-35-5-40 3-6 1-27-4-48-8-29-7-42 5-60 11-17 12-28 4-42-15-30-16-126-1-145 10-12 17-13 27-5s21 3 49-26c38-41 43-55 20-55-22 0-19-9 10-32 18-14 25-29 25-53 0-19 9-49 20-67s20-42 20-53 10-25 23-30c30-13 36-55 8-55-33 0-35-20-3-31 24-8 34-22 52-70 20-52 21-63 10-85-12-21-11-30 3-59 9-20 17-47 17-62 0-14 13-54 30-89 16-34 32-75 36-89 6-25 5-27-16-20-20 6-22 5-15-11 4-11 9-35 11-54 11-102 1-92 142-138 70-22 167-53 215-69l89-28 50-70c28-38 53-72 55-74 2-3 27 18 56 47l52 51 85 3 85 3 3 155 2 156 99 97 99 97h288l98-105c88-95 101-105 133-105 31 0 46-11 134-99 94-95 98-101 101-148l3-48 155-6c193-6 222-17 339-119 283-248 391-340 396-340 14 0 3 51-14 59-10 6-24 25-31 43-8 18-33 54-57 81-44 47-45 54-15 89 22 26 18 58-14 111-19 31-36 47-49 47-26 0-75 45-75 69 0 10-27 41-60 70-36 32-60 60-60 73 0 20-5 26-146 167-46 46-84 89-84 96 0 6-11 26-24 44-32 44-41 85-25 122 9 23 9 33 0 42-6 6-11 25-11 42 0 18-11 46-26 66s-24 43-21 57c5 25-4 28-32 11-10-7-30-9-44-5-21 5-27 12-27 34 0 15-16 52-35 82s-35 61-35 68c0 18 29 15 57-8l26-20 52 30c29 17 64 30 78 30 35 0 50 30 41 83-3 23-8 57-10 75-2 19-12 41-24 50l-21 17 20 27c12 14 21 35 21 45 0 11 14 32 30 46 32 29 38 61 16 90-11 14-11 25-3 47s8 35-2 53c-11 21-10 30 8 63 11 22 23 51 26 66 4 19 14 30 39 38 45 15 62 37 69 89 3 24 11 48 19 52 12 8 83-26 120-59 26-22 199-12 253 15 22 11 55 24 72 28 18 3 37 14 42 23 9 16 12 16 46-2 27-15 42-17 62-10 26 9 26 11 24 82-3 96 11 137 51 151 44 15 82 14 122-6 34-16 37-15 82 8 62 32 73 57 45 104-39 66-23 79 60 50 30-11 50-13 64-6 11 5 34 14 51 21 18 6 44 25 60 41 34 36 48 36 86 4 35-29 61-29 66 0 6 46 26 131 35 150s68 78 116 116c17 14 40 19 85 19 55 1 59 2 42 15-10 8-23 16-29 18-17 5 12 80 43 107 35 32 62 84 69 135 5 33 11 41 36 48 35 10 52 19 137 70 88 54 108 75 108 113 0 41-26 104-44 104-46 0-131-48-208-117-80-73-84-75-126-70-23 2-51 12-61 21-23 21-42 20-83-3-26-14-40-17-65-9-43 11-70 60-54 95 17 37 14 43-22 43-46 0-112 60-102 92 18 61 17 113-3 138-19 24-20 24-47 6-23-15-31-16-51-6-12 7-32 10-44 7-13-3-31 3-48 17-30 25-132 44-132 24 0-13-111-3-142 13-17 9-19 17-14 47 4 21 10 55 13 77 3 24 16 52 34 70 55 59 75 140 39 163-11 7-20 19-20 27 0 20 48 92 66 99 10 4 12 14 7 37-6 31-5 32 26 27 40-6 50 12 27 47-9 13-16 32-16 41 0 13-6 15-30 10-23-4-33-1-42 14-16 26-26 25-56-2l-23-23-19 25c-16 21-21 23-45 12-37-17-49-15-60 10-11 24-27 34-67 42-22 5-28 14-38 53-6 27-11 62-10 80 0 25-6 35-35 53-42 26-43 33-10 62 28 25 33 53 9 62-11 4-15 16-13 40 4 41 0 46-37 49-33 3-54 35-54 84 0 27 7 37 48 64 75 51 84 60 71 76-20 23-93 16-123-12-33-30-36-31-64-4-21 19-30 20-150 14l-127-7-100-55c-55-30-114-66-132-79-57-43-138-21-111 29 24 46 89 137 98 137 5 0 8 17 6 37-3 27-9 39-26 45-19 7-21 13-15 46l6 39-43 9c-50 11-71 46-50 86 6 13 13 52 14 87l3 64 60 31c33 17 62 32 64 33 2 2-4 12-15 24-27 30-24 92 9 161 15 31 27 61 27 67 0 17 19 22 40 11 18-10 28-4 80 46 65 61 76 83 61 112-7 14-6 25 7 43 9 13 15 34 14 46-4 29 6 29 48-2 47-34 67-32 75 8 4 17 20 50 36 71 16 22 29 48 29 58 0 24 36 41 72 34 31-6 68 7 68 25 0 6-13 30-30 54-29 42-51 125-34 125 5 0 16-4 24-10 32-20 55 35 25 60-22 18-18 59 10 105 14 22 25 51 25 64 0 14 5 51 12 83 11 55 11 59-11 82-23 24-23 26-7 52 17 25 17 27-4 49s-21 25-7 46c12 16 13 27 6 40-5 10-7 30-3 44 4 18 2 27-11 31-14 6-16 15-11 44 4 27 2 41-9 50-13 11-13 16 1 42 12 23 13 36 5 60-6 17-11 49-11 72 0 67-9 86-39 86-15 0-32 5-39 12s-28 13-47 15c-29 1-35-2-35-18 0-32-19-59-40-59s-60 52-60 80c0 8-12 38-26 65-31 58-44 113-51 207-5 71-20 92-74 100-18 2-25 10-27 33-5 45-21 58-60 52-47-8-59-1-81 48-16 36-22 42-43 38-15-3-29 2-37 11-22 26-38 19-55-24z" style="fill:#dc212a;fill-opacity:1" transform="matrix(.001 0 0 -.001 .17 16.237)"/>
    <path d="M3086 13389c-3-7-6-25-8-39-2-20-17-31-69-57-112-53-161-139-139-240 16-71 51-117 111-147 63-31 115-33 273-11 120 17 144 14 177-21 47-50 14-124-65-145-51-14-142-5-190 18-20 9-39 13-43 9-8-8 157-176 174-176 6 0 13 15 15 33 3 28 10 35 54 57 83 40 124 78 151 137 29 63 28 123-1 184-24 50-81 106-124 120-38 12-171 8-304-11-66-9-83-8-108 5s-30 21-30 54c0 47 28 75 92 92 43 12 56 11 124-9 42-13 79-20 82-17s-33 45-81 92c-59 60-88 82-91 72zM13308 13114c-4-3-2-16 4-29 20-45 1-70-138-192-292-253-304-261-351-228-14 10-24 12-28 5-9-15 225-284 237-272 6 6 6 17-2 31-16 31-7 50 47 103 85 81 287 250 312 259 33 13 106 1 136-23 17-13 25-29 25-52 0-38-41-81-250-260-108-93-141-116-165-116-17 0-36 5-43 12-8 8-15 9-22 2-10-10 203-267 226-272 17-4 17-3 3 36-7 22-7 36 0 50 6 11 87 86 181 167l171 147 59-4c90-6 132-57 100-118-9-17-221-206-328-292-56-45-73-50-108-32-60 31-39-9 72-140 112-131 148-157 122-88-15 39-16 37 187 217 83 73 162 145 177 161 32 34 58 93 58 129 0 101-108 196-241 211l-56 6 14 41c42 122-79 267-223 267-42 0-43 12-4 42l29 23-91 105c-93 108-100 115-110 104zM2134 12866c-27-27-34-42-34-72 0-116 125-163 200-77 29 32 32 41 27 82-7 63-49 101-113 101-39 0-51-5-80-34zM2361 12610c-93-111-108-145-48-110 29 17 36 18 60 5 36-18 389-317 416-352 21-26 22-43 5-87-16-41 24-5 130 118 129 150 146 181 75 139-26-16-31-16-61-1-18 8-128 96-243 194-116 99-218 185-227 192-13 11-28-3-107-98zM1920 12019c-81-33-129-138-111-246 9-59 4-63-39-33l-28 20-76-119c-42-65-76-121-76-125 0-12 28-6 40 9 28 34 59 20 302-136 246-158 240-153 236-202-1-22 2-42 7-43 13-4 197 285 189 297-3 5-15 3-27-6-43-30-57-23-364 177-97 63-113 85-113 155 0 23 8 42 26 59 30 30 55 27 121-14 380-240 389-246 380-292-12-59 13-38 85 73 113 171 120 184 107 192-6 4-14 3-18-2-3-6-16-15-28-22-29-15-53-3-243 120-197 127-242 149-299 148-25 0-57-5-71-10zM14131 11670c-122-44-221-126-269-223-65-130 6-318 142-378 52-23 190-36 201-20 10 17 6 20-55 31-30 6-64 17-77 26-64 41-82 139-41 222 20 40 119 142 137 142 4 0 36-51 71-112 35-62 79-137 98-166l33-53 47 34c58 42 116 116 131 167 6 20 11 64 11 97 0 49-6 68-32 113-36 58-105 113-166 130-60 16-171 11-231-10zm322-111c57-26 52-94-9-150-39-35-106-79-120-79-12 0-104 149-104 167 0 10 51 38 105 57 49 18 96 20 128 5zM1083 11193c-34-6-83-68-83-104 0-37 23-83 52-103 12-9 42-16 66-16 37 0 50 6 78 34 27 27 34 42 34 73 0 55-31 99-77 112-21 6-40 10-43 10-3-1-15-4-27-6zM1340 11028c-12-29-40-88-61-132-22-43-39-81-39-83 0-11 30 0 45 17 29 32 71 24 210-41 390-184 383-180 370-241-6-23-4-29 6-26 17 6 170 329 162 341-3 5-17-3-32-17s-39-26-53-26-151 59-303 130c-153 72-279 130-280 130s-13-23-25-52zM14822 10875c1-24-5-42-18-54-26-26-488-212-526-213-21-1-37 6-49 20-21 26-43 29-35 5 21-64 136-328 145-331 6-2 9 13 8 37-1 25 5 47 13 56 17 16 253 117 315 134 52 14 137 14 169-1 33-15 39-36 25-91-9-36-8-51 3-73 29-61 107-70 163-18 24 23 27 30 22 72-7 66-63 115-164 144-40 12-73 26-73 30s4 8 10 8c5 0 34 11 64 24l55 25-52 127c-54 133-77 163-75 99zM738 10488c-3-13-26-101-52-197-26-95-46-177-44-182 3-8 173-139 438-339 69-51 127-95 129-97 11-8-21-14-259-48-391-55-454-65-461-76-5-9-99-358-103-383 0-5 4-10 10-13 6-2 16 14 23 36 12 41 51 81 79 81 8 0 135-32 281-71s318-84 381-101c165-42 189-61 190-146 0-91 21-56 66 114 24 87 44 160 44 162 0 1-6 2-13 2s-19-16-26-35c-16-45-55-75-97-75-28 0-586 143-749 191l-40 12 35 8c39 8 122 21 530 79 373 54 425 63 424 75-1 6-49 46-106 90-409 314-668 518-668 526 0 6 4 8 8 5 4-2 136-39 292-80 570-152 533-136 530-225-3-72-2-77 9-65 12 11 144 505 137 511-10 10-25-8-31-37-6-26-55-80-73-80-24 0-792 206-825 221-36 17-52 59-39 109 5 21 7 42 4 45-11 11-20 4-24-17zM13117 10350c-126-28-246-71-324-118-38-22-195-153-353-293-157-139-320-283-363-321-42-37-81-68-86-68-4 0-221 54-482 119-980 247-1198 301-1218 301-36 0-58-33-66-99-5-47-4-67 8-84 8-12 129-88 269-169l254-148 165-166c90-91 169-172 174-178 6-7 52-55 103-108l93-94-228-201c-125-111-248-220-271-242-24-23-51-41-59-41-15 0-357 86-518 131-120 33-143 24-165-62-23-90-24-89 185-251 105-82 199-155 210-162 18-13 19-16 6-38-46-73-91-173-91-199 0-38 48-89 83-89 13 0 64 14 113 31s95 31 102 32c14 2 43-48 220-373 19-36 42-73 50-82 17-20 64-23 127-8 55 13 68 33 61 100-3 30-15 154-26 275s-23 243-26 270c-5 50-5 50 38 80 37 25 250 198 456 372 35 29 67 53 71 53 3 0 108-136 232-302l225-303 83-215c119-310 140-358 158-364 9-4 42-9 73-13 50-5 59-3 85 19l28 25-51 574c-29 316-64 711-79 878l-27 304 40 34c21 18 82 69 134 111 357 293 570 471 598 501 85 90 164 237 222 410 34 101 34 138-3 171-27 26-109 26-230 0zM14830 9872c-90-30-134-58-188-116-64-71-87-135-78-219 7-74 33-129 83-181 46-48 159-104 176-87 6 6 9 12 6 14-95 67-119 101-119 168 0 65 43 129 121 179 163 105 368 129 407 48 19-40 3-61-77-103-89-47-110-89-76-154 32-63 116-62 173 4 41 46 55 96 49 171-9 118-74 212-179 260-82 37-214 44-298 16zM15018 8910c-66-12-148-51-196-94-59-53-85-115-85-201 0-124 55-210 172-270 85-43 112-27 39 22-66 44-91 87-86 149s34 106 97 146c49 31 148 64 159 53 4-4 16-88 27-188l21-182 40 2c52 2 150 46 192 86 146 139 89 369-113 458-55 24-187 34-267 19zm362-199c58-30 67-103 15-137-27-17-111-41-165-46l-35-3-7 55c-3 30-9 76-12 102-6 45-6 47 21 51 49 8 147-4 183-22z" style="fill:#1e528c;fill-opacity:1" transform="matrix(.001 0 0 -.001 .17 16.237)"/>
    <path d="M11529 8332c-36-31-136-115-223-187-129-106-156-133-152-150 3-11 6-29 6-41 0-17 10-23 54-33 96-21 179-103 206-201 26-93-24-680-95-1131-14-86-25-159-25-163 0-12 219 156 224 172 19 65 70 591 86 892 13 234 23 278 82 345 55 63 107 87 196 93 39 2 72 6 72 9 0 2-32 46-72 99-53 71-83 101-117 119-75 38-135 116-147 193-4 23-12 42-18 41-6 0-40-26-77-57z" style="fill:#1e528c;fill-opacity:1" transform="matrix(.001 0 0 -.001 .17 16.237)"/>
    <path d="M1820 8030c-531-77-1019-146-1085-155s-130-18-142-22l-23-5v-389c0-401 0-404 38-380 13 8 34 151 67 446 9 77 20 149 24 161 8 18 31 23 197 47 104 15 195 27 201 27 10 0 13-70 15-297l3-298 24-3c13-2 28 1 33 6s16 70 23 143c29 274 53 468 60 478 3 6 21 11 40 11 18 0 100 9 181 20 82 11 164 20 181 20h33l2-312c3-305 3-313 23-313 23 0 22-9 55 350 30 321 23 298 95 307 33 4 114 15 180 23s134 16 150 17l30 3 3-317 2-318h57l11 98c6 53 21 201 33 327 12 127 27 235 33 241 9 9 358 65 404 64 9 0 12-78 12-354v-354l33-10c38-13 692-224 1227-399 212-69 462-150 555-180 94-30 195-63 225-73l55-19 3 337c1 184-1 339-5 342-5 4-116 52-248 108-472 198-893 375-1075 452-102 43-225 95-275 115-49 20-135 56-190 80-229 98-273 115-286 114-8 0-448-63-979-139z" style="fill:#dc212a;fill-opacity:1" transform="matrix(.001 0 0 -.001 .17 16.237)"/>
    <path d="M9480 8093c-42-18-61-34-78-63-13-23-41-51-67-66-25-14-45-28-45-30s224-4 498-4h498l31 64 32 65-39 31-39 31-368-2c-362-3-369-3-423-26z" style="fill:#1e528c;fill-opacity:1" transform="matrix(.001 0 0 -.001 .17 16.237)"/>
    <path d="M2660 7149c-36-5-128-15-205-24-77-8-239-26-360-40s-281-32-355-40c-216-23-398-44-495-56-49-6-220-25-380-43l-290-31-3-248-2-247h23c21 0 24 10 59 186 21 103 40 189 42 191 3 3 100 8 215 11l211 5v-423h29c33 0 35 4 51 135 21 171 43 310 49 317 4 5 366 38 417 38 2 0 5-127 6-282 3-282 3-283 25-284 12-1 26 2 31 5 6 3 20 132 32 286 11 154 22 284 24 289 2 9 358 65 419 66h27v-671l23 7c12 4 25 11 28 15 3 5 21 151 40 325 18 174 38 318 44 320 21 8 410 61 418 57 4-2 7-163 7-357v-354l78-20c42-12 138-37 212-56 356-92 483-124 840-217 594-155 635-165 785-204 77-20 148-38 158-41 16-5 17 15 17 323v329l-492 173c-549 193-1071 377-1193 421-339 121-425 150-446 149-13-1-53-5-89-10zM12158 6947c-97-73-265-197-373-277-267-197-523-386-766-565-112-82-379-279-593-438-215-158-453-333-529-390-76-56-157-115-181-132-23-16-54-40-69-51l-27-22v-692c0-381 2-695 5-698 4-5 173 10 760 68 233 23 567 56 775 76 85 8 247 23 360 34s252 25 310 30c58 6 132 13 165 16s78 7 99 11l39 5-4 1267-4 1266 38 75c48 92 134 210 154 210 32 0 330 129 372 162 28 21 91 23 257 8 60-6 161-15 224-20 461-40 611-53 805-70 390-35 668-59 751-66l81-6 8 47c4 33 3 50-5 55-6 4-46 10-88 13-115 10-268 24-552 52-140 13-329 31-420 40-91 8-212 19-270 25-112 11-419 40-690 65-91 9-205 20-255 25-193 21-176 26-377-123z" style="fill:#dc212a;fill-opacity:1" transform="matrix(.001 0 0 -.001 .17 16.237)"/>
    <path d="M12720 6879c0-6 13-57 30-113 47-164 79-303 96-426 16-119 13-184-12-233-12-22-12-28-2-31 7-3 297-23 643-46 347-23 794-52 995-65 686-46 731-48 740-39 11 11-13 153-39 239-30 96-78 212-141 336-77 154-104 195-132 202-52 13-668 76-943 96-567 43-692 52-780 62-263 27-455 35-455 18z" style="fill:#2a2a2a;fill-opacity:1" transform="matrix(.001 0 0 -.001 .17 16.237)"/>
    <path d="m12476 6767-159-72-68-110-68-110-1-1394V3687l53 7c28 3 66 6 84 6 27 0 35 7 58 48 15 26 48 74 72 107 38 51 40 55 11 24-19-19-40-44-46-55-17-31-26-8-14 35 17 54 82 117 159 154 55 25 79 30 144 31l77 1 7 165c4 90 5 268 2 395-6 237-18 327-54 381-16 25-17 25-30 8-16-21-17-78-3-105 8-13 7-19 0-19-6 0-16 11-22 25-7 16-19 25-33 25-41 0-89 42-105 92-13 41-20 49-57 63-69 27-83 53-83 157 0 128 15 157 93 182 17 5 17 7 0 32-15 24-17 50-15 203 3 206 7 235 36 260 69 64 119 101 134 101 10 0 33 12 51 28 98 80 94 75 99 138 5 71-24 247-73 449-37 151-61 216-79 214-6 0-83-33-170-72zm-6-2130c0-291 1-305 20-322 27-25 40-77 39-160-2-114-14-133-23-35-9 107-21 155-47 179-20 19-21 25-13 330 4 171 11 311 15 311 5 0 9-137 9-303z" style="fill:#3a3a3c;fill-opacity:1" transform="matrix(.001 0 0 -.001 .17 16.237)"/>
    <path d="M5000 6070v-339l38-10c20-5 370-93 777-196 407-102 748-188 758-191 16-5 17 13 17 283v289l-132 43c-73 23-218 69-323 102-104 33-244 78-310 99-66 20-178 56-250 80-209 67-566 180-571 180-2 0-4-153-4-340z" style="fill:#dc212a;fill-opacity:1" transform="matrix(.001 0 0 -.001 .17 16.237)"/>
    <path d="M7227 6343c-4-3-7-100-7-215v-208h530v219l-127 3-128 3-3 103-3 102h-128c-70 0-131-3-134-7z" style="fill:#1e528c;fill-opacity:1" transform="matrix(.001 0 0 -.001 .17 16.237)"/>
    <path d="M2530 6144c-129-12-250-23-268-23-30-1-33-3-30-28l3-28 205-27c277-37 424-69 485-106 24-15 38-38 64-108 62-166 136-305 192-362 92-94 242-181 426-248 150-54 222-71 763-174 266-51 458-88 488-95l22-5v637l-572 162c-315 90-609 174-653 187-102 30-617 177-755 215-58 16-112 28-120 28-8-1-121-12-250-25z" style="fill:#dc212a;fill-opacity:1" transform="matrix(.001 0 0 -.001 .17 16.237)"/>
    <path d="M555 6048c12-63 134-464 183-603 295-836 758-1663 1298-2315l75-90h3320c2501 0 3326 3 3342 12 35 18 410 283 552 389 158 118 181 141 194 199 14 60 12 215-3 265l-12 40-149 32c-146 31-748 147-1130 217-104 19-278 51-385 71s-343 63-525 96c-181 32-364 65-405 73s-118 22-170 31-140 25-195 35c-55 11-239 44-410 74-170 31-434 78-585 105s-381 68-510 91-318 57-420 75-279 50-395 70c-271 47-395 75-527 119-308 103-554 268-685 458-79 114-106 176-140 318-8 33-12 36-78 52-141 35-541 95-880 133-322 35-785 67-1179 80l-188 7zm1668-895c71-36 118-158 98-254-15-66-33-100-75-137-153-134-349 107-248 304 50 97 137 131 225 87z" style="fill:#1e528c;fill-opacity:1" transform="matrix(.001 0 0 -.001 .17 16.237)"/>
    <path d="M12825 5998c-25-19-38-22-106-19-74 3-80 1-104-25-14-15-25-31-25-35 0-5-8-9-18-9-11 0-27-9-37-20-17-19-19-41-19-222l-1-202 32-21c18-11 31-24 29-30-1-5-26-17-54-25-79-24-86-35-90-143s1-117 73-145c44-17 51-24 56-53 3-19 11-44 17-55 12-22 65-47 76-37 11 12 6 33-8 33-40 0-62 64-26 75 34 11 53 63 58 160 6 114-9 172-46 186l-27 11 33 13c17 8 36 25 41 38s11 108 13 211c3 185 3 188-20 206-12 10-28 21-35 23-28 12 21 27 90 27h71l12-52c6-29 27-143 46-253 96-555 88-519 115-532 29-14 191-35 489-63 255-23 393-39 399-46 6-6-28-5-184 6-77 5-268 17-425 25s-331 18-387 21c-120 8-116 13-78-101 42-125 56-261 63-619l7-329 25-18c22-16 53-19 255-23 292-7 386-23 130-23-99 0-208-3-242-7l-62-8 48-71c97-144 148-271 159-396l7-76 563-9c545-8 563-8 577 10 8 11 15 22 15 27 0 4-48 7-106 7-110 0-186 13-204 35-6 8-31 184-55 392-25 208-56 475-70 593s-28 239-31 268c-4 29-10 55-15 57-7 5-655 147-894 196-181 38-143 38 210-1 355-39 562-61 655-70 52-5 289-16 525-24 237-9 494-18 572-21 78-4 166-4 196 0 53 7 54 7 80 61 15 30 27 59 27 64 0 6-36 10-82 11s-108 5-138 9c-40 6-17 7 81 5 75-1 141 0 147 4 5 3 31 65 56 136 26 72 53 147 61 168 18 44 8 202-20 328-21 90-73 205-112 241l-28 26-310 16c-170 9-341 19-380 21l-70 4 60-9c33-6 112-17 175-26 240-34 546-107 587-141 17-14 17-14-2-8-136 45-366 81-795 124-525 54-1278 66-1505 25-22-4-26-3-14 5 48 31 365 69 601 72 56 1-23 9-202 19-162 10-336 21-386 24-84 6-93 4-119-16zm2068-1015c-7-2-21-2-30 0-10 3-4 5 12 5 17 0 24-2 18-5zm-1309-1116c87-41 228-131 264-170 15-15 22-34 20-49-5-39-51-47-295-47l-222-1-20 26c-18 23-21 41-21 132 0 96 2 108 23 130 20 22 28 24 97 20 59-4 91-12 154-41zm-24-347c266-35 277-39 250-91-10-18-23-19-235-19-218 0-225 1-236 21-6 13-8 39-4 65 8 53 2 53 225 24z" style="fill:#2a2a2a;fill-opacity:1" transform="matrix(.001 0 0 -.001 .17 16.237)"/>
    <path d="M12716 5893c13-31 15-112 7-275-7-125-12-161-26-176-16-17-16-22-1-66 13-36 15-72 12-149-5-102-18-148-52-176-9-8-16-17-16-22 0-12 37-11 45 1 3 6 14 10 23 10 10 0 23 9 30 20 10 16 23 20 71 20h58l6 118c6 110 3 134-44 402-27 157-51 291-54 298-2 6-18 12-36 12-26 0-30-3-23-17z" style="fill:#3a3a3c;fill-opacity:1" transform="matrix(.001 0 0 -.001 .17 16.237)"/>
    <path d="M8828 5798c-2-57 0-73 17-94 19-23 30-26 180-39 319-28 693-78 966-129l86-17 97 72c53 40 95 73 94 74-6 5-217 45-421 80-229 39-607 87-817 105-74 6-149 12-167 14l-31 4zM6862 5743l3-108 662-3 663-2 2-638 3-637 150-37c332-83 759-187 761-185 4 4 14 233 19 457 3 129 8 287 11 350l6 115-128 110c-172 148-577 500-693 602l-95 83H6859z" style="fill:#1e528c;fill-opacity:1" transform="matrix(.001 0 0 -.001 .17 16.237)"/>
    <path d="M15.495 10.421c.017.014.038.02.077.02.063 0 .076.014.04.044-.029.022-.029.023-.033.172l-.004.15.021-.05c.011-.028.036-.099.055-.157l.036-.106-.022-.037c-.028-.049-.045-.056-.126-.056l-.068.001z"/>
    <path d="m5002 5223 3-347 70-12c39-7 151-27 250-44s216-38 260-45c44-8 148-26 230-40 168-29 287-50 550-95 99-17 190-34 203-37l22-5v275c0 254-1 276-17 281-41 13-1558 416-1565 416-5 0-7-156-6-347z" style="fill:#dc212a;fill-opacity:1" transform="matrix(.001 0 0 -.001 .17 16.237)"/>
    <path d="M7050 5385v-115h260v230h-260zM7450 5385v-115h260v230h-260zM7840 5385v-115h260v230h-260zM7440 5065v-115h260v230h-260zM7840 5065v-115h260v230h-260zM7840 4715v-115h260v230h-260z" style="fill:#1e528c;fill-opacity:1" transform="matrix(.001 0 0 -.001 .17 16.237)"/>
    <path d="M13951 4726c-16-19-14-53 23-386 15-129 42-372 60-539 28-261 35-306 51-317 14-10 56-14 159-14l141 1 29 42c152 216 333 505 459 732 53 96 56 106 77 240 11 77 23 152 26 167 4 18 0 32-14 46-18 18-39 20-328 26-170 3-390 9-490 12-157 5-182 4-193-10z" style="fill:#2a2a2a;fill-opacity:1" transform="matrix(.001 0 0 -.001 .17 16.237)"/>
    <path d="M9186 4608c-9-84-14-488-6-493 9-6 230-55 246-55 11 0 14 38 14 203v204l-112 89c-61 49-117 92-124 97-9 5-14-7-18-45z" style="fill:#1e528c;fill-opacity:1" transform="matrix(.001 0 0 -.001 .17 16.237)"/>
    <path d="M12719 3964c36-7 69-19 75-25 8-9 6-10-9-3-11 5-52 9-90 9-63 0-76-4-124-35-102-65-185-215-211-383-16-95-8-289 14-372 41-150 134-285 229-333 47-24 119-29 175-13 22 7 32 6 32-1 0-8 26-9 82-5 97 8 180 43 246 105 43 40 43 41 24 60-16 16-20 40-26 170-4 84-4 178-1 209 8 67-19 196-61 296-56 133-176 276-266 317-27 12-64 19-98 19l-55-1zm34-268c104-44 174-235 147-402-15-90-61-186-107-221-31-24-46-28-97-28-155 1-242 123-240 340 1 162 55 265 159 305 60 23 95 25 138 6z" style="fill:#3a3a3c;fill-opacity:1" transform="matrix(.001 0 0 -.001 .17 16.237)"/>
    <path d="M12593 3532c-80-62-68-283 19-328 121-63 200 193 96 312-34 39-78 45-115 16z" style="fill:#121212;fill-opacity:1" transform="matrix(.001 0 0 -.001 .17 16.237)"/>
    <path d="M11795 3789c-137-10-479-35-760-54-1102-76-1243-86-1323-93l-84-7 89-52 88-51 23 29c24 30 71 59 94 59 7-1 0-8-17-17-40-21-61-48-92-113-22-46-27-73-31-161-5-117 10-191 54-260 34-55 68-69 151-65 80 4 119 21 158 68 45 54 58 94 56 188-2 100 10 170 43 250l23 59-66 4-66 3 71 2c65 2 73 4 100 33 34 37 82 59 121 58l28-1-30-7c-130-32-214-200-202-406 11-188 105-322 207-295 14 4 32 2 40-3 10-6 36-5 72 2 111 23 186 123 213 284l6 37 97 1c53 1 106 2 117 3s48 3 83 4l62 2v48c0 55 31 185 55 231l15 31-257-5c-288-4-242 8 73 20l192 7 42 45c70 75 169 104 230 68l25-15-30 7c-76 19-137-1-196-64-47-50-67-84-90-150-66-192-34-436 73-558 60-68 115-90 185-75 24 6 42 5 50-2 19-15 119-2 168 22 113 55 203 217 205 368v32h158c86 0 187 3 225 7l67 6v78c0 42 7 113 15 156s15 80 15 82-128 2-285-2c-183-3-287-2-291 4-3 6-4 12-3 14 2 1 83 8 179 15 96 6 178 15 182 18 3 4 3 34 0 67l-7 60-35 1c-19 1-147-7-285-17zm-1310-139c3-6-1-7-9-4-18 7-21 14-7 14 6 0 13-4 16-10zm-510-40c3-6-1-7-9-4-18 7-21 14-7 14 6 0 13-4 16-10zm1504-80c16-11 39-43 52-72 20-44 24-69 24-148 0-86-3-101-30-155-36-72-72-100-125-99-62 2-109 33-144 95-28 49-31 62-31 144 0 106 19 166 68 212 56 54 130 63 186 23zm-994-54c37-39 45-70 45-170 0-159-89-244-188-180-80 52-83 273-4 347 51 47 104 48 147 3zm-497-18c31-34 42-72 42-149 0-110-37-179-95-179-47 0-82 33-100 92-19 65-19 105 1 165 19 60 54 93 98 93 21 0 40-8 54-22z" style="fill:#3a3a3c;fill-opacity:1" transform="matrix(.001 0 0 -.001 .17 16.237)"/>
    <path d="M11331 3424c-66-47-67-201-1-247 26-18 51-13 81 19 19 20 24 39 27 93 4 74-12 122-47 141-26 13-33 13-60-6zM10372 3413c-39-16-57-146-26-191 35-50 90-14 101 67 7 50-2 86-27 111-21 21-26 22-48 13zM9884 3379c-37-41-17-169 27-169 29 0 49 40 49 95 0 52-20 95-44 95-7 0-21-9-32-21z" style="fill:#121212;fill-opacity:1" transform="matrix(.001 0 0 -.001 .17 16.237)"/>
    <path d="m13576 3303-428-3 6-152c4-84 10-156 13-161 7-12 844 3 860 15 11 9 167 211 212 276l22 32-128-2c-70-2-321-4-557-5z" style="fill:#2a2a2a;fill-opacity:1" transform="matrix(.001 0 0 -.001 .17 16.237)"/>
    <path d="M9210 3149c-36-27-127-90-202-141s-137-97-138-102c0-6-12-22-26-37-26-27-26-27-4-34 41-13 55-96 19-116-18-9-27-7-50 10-16 12-40 26-55 31-14 6-28 19-31 30-5 20-15 25-26 13-4-3-2-13 5-20 6-8 11-32 9-54-2-46 19-61 48-35 15 14 29 16 70 10 55-7 62-20 20-41-14-7-24-22-25-35s-4-31-9-40c-11-26 45-38 59-13 22 37 58 75 72 75 16 0 19-16 4-25-16-10-12-19 20-37 17-9 30-21 30-25 0-5-19-14-42-20-37-10-45-17-55-49-9-31-9-42 3-58 22-32 18-56-11-56-30 0-31-9-5-57 27-50 26-100-2-130-20-22-21-24-4-42 12-13 15-27 11-41-4-11-2-27 5-35 16-19-6-51-44-62-22-7-30-15-29-28 1-15-33-88-54-114-2-3-10 4-17 15-14 18-15 18-21-9-4-16-3-46 4-67 6-20 8-52 5-70-5-25-3-35 9-42 13-7 17-24 17-78 0-38-4-71-8-74-7-4-8-74-3-133 2-21 26-15 53 15 29 30 77 121 89 167 4 17 15 50 24 75 13 34 15 61 10 107-6 59-5 65 25 106 17 24 49 54 71 66s39 30 39 39c0 24 28 62 45 62 20 0 145 125 145 144 0 9 9 33 20 53 11 21 20 43 20 49s9 19 20 29 20 28 20 40 11 32 25 45c15 14 25 35 25 52 0 19 6 31 18 34 35 11 47 22 47 44 0 14 9 26 23 31 30 11 30 62 1 83-19 13-20 19-11 45 11 31 1 53-30 64-10 3-11 11-2 34 13 35 7 50-27 67-16 7-25 22-27 41-2 17-9 37-17 45-21 25-38 140-26 173 10 25 8 31-16 53-14 13-31 24-37 23-6 0-40-23-76-50z" style="fill:#dc212a;fill-opacity:1" transform="matrix(.001 0 0 -.001 .17 16.237)"/>
    <path d="M10948 2802c-62-132-171-224-298-252-34-7-103-11-175-8-126 4-176 19-232 70-21 20-23 20-58 3-21-9-83-21-141-26-126-12-187 1-260 57-60 46-88 78-116 134-13 25-24 47-25 49-2 4-11-5-72-72-43-47-44-48-25-68 41-45 88-218 88-326 1-80-14-111-72-148-20-13-33-31-38-53-3-18-15-43-25-56-18-22-11-21 154 25 399 111 786 264 1167 461 210 109 262 141 256 158-36 108-45 125-68 128-20 2-28-9-60-76zM5159 2614c49-35 408-201 591-274 922-368 1852-501 2853-409 117 11 127 14 127 32 0 11 7 28 16 38 14 15 14 20 0 54-18 43-21 107-6 136 19 34-14 33-122-4-146-50-216-62-274-48-100 25-166 78-206 166-19 42-23 71-26 188l-4 137h-178v-123c0-166-14-211-88-287-45-46-69-62-111-74-70-20-88-20-188 4-254 61-563 215-834 416l-87 64-418-2c-324-3-432-7-476-18-50-12-66-12-115 0-39 10-127 15-267 17-193 2-208 1-187-13z" style="fill:#0b72ba;fill-opacity:1" transform="matrix(.001 0 0 -.001 .17 16.237)"/>
    <g aria-label="ကျန်းမာရေးဝန်ကြီးဌာန" transform="matrix(.37263 0 0 .37263 -6.895 -3.85)" style="font-style:normal;font-variant:normal;font-weight:400;font-stretch:normal;font-size:10.5833px;line-height:1.25;font-family:Arial;-inkscape-font-specification:Arial;white-space:pre;shape-inside:url(#a);fill:#0084fd;fill-opacity:1;stroke:none">
        <g aria-label="စီးပွားရေးနှင့် ကူးသန်းရောင်းဝယ်ရေးဝန်ကြီးဌာန" style="font-style:normal;font-weight:400;font-size:5.68031px;line-height:1.25;font-family:sans-serif;fill:#000;fill-opacity:1;stroke:none;stroke-width:.710038">
            <path d="M68.64 22.993q0 .616-.465 1.076-.47.453-1.082.453-.58 0-1.073-.45-.439-.48-.439-1.093 0-.66.436-1.087.444-.435 1.087-.435.652 0 1.09.449.447.452.447 1.087zm-.637 0q0-.355-.264-.635-.263-.283-.627-.283h-.063q-.012 0-.012-.003v.003h-.005q.158.164.241.397.086.23.086.521 0 .339-.152.616-.047.089-.097.158-.048.07-.086.117h.069q.372 0 .627-.272.283-.236.283-.619zm-1.279 0q0-.263-.083-.394-.036-.055-.094-.108-.059-.052-.128-.1-.097.111-.15.258-.053.147-.053.33 0 .175.053.322.053.147.15.264.305-.203.305-.572z" style="font-style:normal;font-variant:normal;font-weight:700;font-stretch:normal;font-size:5.68031px;font-family:Pyidaungsu;-inkscape-font-specification:'Pyidaungsu Bold';stroke-width:.710038"/>
            <path d="M68.385 20.311q0 .486-.363.857-.372.366-.854.366-.497 0-.854-.357-.355-.37-.355-.866 0-.507.349-.87.347-.361.86-.361.499 0 .86.369.357.366.357.862zm-1.905.13.05-.047q.025-.025.055-.044-.002.164-.033.203-.03.036-.08-.048-.009-.013-.006-.033 0-.02.014-.03zm1.276-.13q0-.241-.175-.424-.177-.186-.413-.186-.253 0-.419.18-.164.167-.164.43v.04q.23-.167.547-.167.113 0 .227.025.111.025.208.069l.106.053q.047.025.083.05zm-.27.574-.021-.022-.025-.02q.013-.005.027-.013l.028-.022zm-.318.028q.152 0 .272-.07-.1-.06-.294-.077-.175 0-.272.067.127.08.294.08zM68.904 22.12q0-.142.056-.267.052-.124.144-.216.094-.094.219-.147.125-.055.266-.055.142 0 .266.055.125.053.217.147.094.092.147.216.055.125.055.267 0 .141-.055.266-.053.125-.147.219-.092.092-.217.147-.124.053-.266.053-.141 0-.266-.053-.125-.055-.22-.147-.09-.094-.143-.22-.056-.124-.056-.265zm.56 0q0 .052.036.088t.09.036q.052 0 .088-.036t.036-.088q0-.053-.036-.09-.036-.035-.089-.035t-.089.036q-.036.036-.036.089zm-.546 1.7q0-.142.055-.266.053-.125.145-.217.094-.094.219-.147.125-.055.266-.055.141 0 .266.055.125.053.217.147.094.092.147.217.055.124.055.266 0 .141-.055.266-.053.125-.147.22-.092.09-.217.143-.125.056-.266.056-.141 0-.266-.056-.125-.052-.22-.144-.09-.094-.144-.219-.055-.125-.055-.266zm.56 0q0 .053.036.089t.089.036q.053 0 .089-.036t.036-.09q0-.052-.036-.088t-.089-.036q-.053 0-.089.036t-.036.089zM73.75 22.94q0 .32-.123.602-.119.283-.335.514-.225.227-.502.346-.275.12-.594.12-.64 0-1.09-.472-.443-.469-.443-1.11 0-.421.219-.81.21-.385.59-.648l.13-.028q.309 0 .342.319 0 .164-.158.263-.106.064-.194.161-.09.095-.156.222-.138.255-.138.522 0 .385.269.662.272.28.63.28.39 0 .651-.277.264-.28.264-.665 0-.27-.136-.522-.133-.255-.35-.38-.122-.072-.147-.233-.01-.302.31-.352l.131.036q.394.22.61.616h-.002q.221.396.221.835z" style="font-style:normal;font-variant:normal;font-weight:700;font-stretch:normal;font-size:5.68031px;font-family:Pyidaungsu;-inkscape-font-specification:'Pyidaungsu Bold';stroke-width:.710038"/>
            <path d="M73.494 25.412q0 .513-.355.874-.352.36-.868.36-.51 0-.865-.363-.364-.358-.364-.871 0-.516.356-.88.349-.363.873-.363.508 0 .863.366.36.364.36.877zm-.632 0q0-.264-.17-.436-.174-.174-.42-.174-.267 0-.433.169-.164.166-.164.44 0 .253.172.434.175.183.424.183.253 0 .422-.178.169-.172.169-.438zM73.697 22.233q-.008-.014-.008-.03 0-.017.01-.03.211-.273.494-.464v.003q.37-.252.84-.252.769 0 1.221.651.286.42.286.868 0 .824-.663 1.257-.452.294-.915.294-.175 0-.38-.056l-.097-.033-.103-.055q-.236-.075-.236-.314 0-.052.022-.1.025-.05.07-.1.088-.105.219-.105.052 0 .089.011.036.009.06.025l.197.078h-.002q.022.005.058.008.039.003.097.003.377 0 .66-.266v.003q.283-.27.283-.65 0-.147-.042-.28-.041-.133-.113-.247-.05-.072-.13-.135-.078-.067-.184-.114-.202-.103-.402-.103-.269 0-.53.156l.006-.003q-.189.147-.31.338l-.1.147q-.017.028-.045.028-.03-.003-.047-.028zM76.706 22.12q0-.142.056-.267.052-.124.144-.216.094-.094.219-.147.125-.055.266-.055.142 0 .266.055.125.053.217.147.094.092.147.216.055.125.055.267 0 .141-.055.266-.053.125-.147.219-.092.092-.217.147-.124.053-.266.053-.141 0-.266-.053-.125-.055-.22-.147-.09-.094-.143-.22-.056-.124-.056-.265zm.56 0q0 .052.036.088.037.036.09.036.052 0 .088-.036t.036-.088q0-.053-.036-.09-.036-.035-.089-.035-.052 0-.089.036-.036.036-.036.089zm-.546 1.7q0-.142.055-.266.053-.125.145-.217.094-.094.219-.147.125-.055.266-.055.142 0 .266.055.125.053.217.147.094.092.147.217.055.124.055.266 0 .141-.055.266-.053.125-.147.22-.092.09-.217.143-.124.056-.266.056-.141 0-.266-.056-.125-.052-.22-.144-.09-.094-.144-.219-.055-.125-.055-.266zm.56 0q0 .053.036.089t.09.036q.052 0 .088-.036t.036-.09q0-.052-.036-.088t-.089-.036q-.053 0-.089.036t-.036.089zM81.502 23.623l-.133.222-.14.188q-.199.2-.512.344-.158.072-.322.108-.16.037-.336.037-.635 0-1.067-.455-.43-.455-.43-1.099 0-.64.463-1.079.46-.432 1.107-.432.457 0 .798.23.186.122.389.383.094.122.113.25 0 .321-.332.321-.2 0-.286-.18-.078-.097-.142-.167-.06-.072-.097-.094-.163-.122-.443-.122-.2 0-.367.067-.163.063-.302.194-.269.252-.269.652 0 .338.16.521.106-.205.303-.341.197-.136.491-.217l.339-.058q.263 0 .504.111.242.111.46.339zm-.688-.017q-.017-.014-.036-.022l.041-.044zm-.755.278q.416 0 .697-.28l.022-.02q-.075-.033-.275-.033-.138 0-.269.05-.13.047-.241.138l-.07.067q-.03.03-.047.061.04.011.084.014.044.003.1.003zM84.797 26.005h.235q.3 0 .325.303 0 .319-.322.335h-.563q-.285-.008-.308-.319v-3.211q0-.489-.252-.752-.13-.133-.289-.197-.155-.067-.352-.067-.297 0-.571.217-.108.086-.18.172-.07.086-.1.166.552.017.851.341.375.405.375.921 0 .61-.375.613-.627.011-1.07-.44-.439-.453-.439-1.096 0-.65.444-1.093.441-.439 1.065-.439.314 0 .585.114.272.114.497.333.114.105.202.255.092.147.145.308.097.291.097.644zm-1.75-2.038v-.033q0-.017-.003-.037l.03.012.036.005zm-.12-.128q.03.02.059.034.027.013.058.024-.006-.041-.017-.088-.01-.047-.028-.103v.003q-.15-.408-.59-.436.008.023.022.05l.036.067q.141.305.46.45zM85.146 22.12q0-.142.056-.267.052-.124.144-.216.094-.094.219-.147.125-.055.266-.055.142 0 .267.055.124.053.216.147.094.092.147.216.055.125.055.267 0 .141-.055.266-.053.125-.147.219-.092.092-.216.147-.125.053-.267.053-.141 0-.266-.053-.125-.055-.22-.147-.09-.094-.143-.22-.056-.124-.056-.265zm.56 0q0 .052.037.088.036.036.088.036.053 0 .089-.036t.036-.088q0-.053-.036-.09-.036-.035-.089-.035-.052 0-.088.036-.037.036-.037.089zm-.546 1.7q0-.142.056-.266.052-.125.144-.217.094-.094.219-.147.125-.055.266-.055.142 0 .266.055.125.053.217.147.094.092.147.217.055.124.055.266 0 .141-.055.266-.053.125-.147.22-.092.09-.217.143-.124.056-.266.056-.141 0-.266-.056-.125-.052-.22-.144-.09-.094-.143-.219-.056-.125-.056-.266zm.56 0q0 .053.036.089t.09.036q.052 0 .088-.036t.036-.09q0-.052-.036-.088t-.089-.036q-.053 0-.089.036t-.036.089zM88.755 23.002q-.064-.02-.12-.03-.052-.015-.1-.026.064.042.123.086.058.042.11.083l.483.408q0-.005-.003-.008 0-.006-.002-.011-.014-.109-.095-.23-.039-.067-.086-.114-.044-.047-.091-.075v.003q-.05-.03-.106-.05-.055-.02-.113-.036zm1.436 1.309q0 .113-.091.222-.047.05-.103.077-.055.03-.12.03-.068 0-.163-.046l-.324-.228q-.133.08-.37.125-.232.044-.56.044l-.194-.008q-.238-.025-.413-.058t-.283-.078q-.219-.089-.382-.266-.211-.289-.211-.605 0-.252.136-.46.127-.197.308-.283h-.003q.174-.08.377-.08.03 0 .058.002.028 0 .056.003-.106-.078-.17-.183-.094-.164-.094-.35 0-.28.183-.463.244-.252.627-.252.175 0 .33.061.155.058.28.16l.061.048q.034.025.064.05l.05.053q.03.033.075.075.005.005.011.019.005.014.005.02 0 .399-.377.399l-.152-.07-.153-.133q-.064-.047-.197-.047-.083-.005-.125.02-.041.022-.052.06l.005.034.011.03q.014.017.078.045.091.044.252.064.09.01.167.025.08.01.158.033.155.039.344.15.516.321.59.895 0 .178-.016.289-.017.108-.039.166l.22.161q.069.033.107.097.04.064.04.153zm-1.417-.4-.022-.016q.105-.006.122-.011l-.014.094zm-.275-.014h.142q.064 0 .11-.002l-.021-.017-.341-.258-.206-.155.003.003q-.208-.136-.391-.136-.108 0-.144.055-.014.028-.028.07-.011.038-.011.072 0 .086.08.2l-.002-.004q.025.04.213.103H87.9q.186.061.405.061l.197.008z" style="font-style:normal;font-variant:normal;font-weight:700;font-stretch:normal;font-size:5.68031px;font-family:Pyidaungsu;-inkscape-font-specification:'Pyidaungsu Bold';stroke-width:.710038"/>
            <path d="M88.846 26.3q0 .318-.324.318h-.652q-.314 0-.314-.319 0-.258.297-.307h.366v-1.518q.006-.319.303-.319.324 0 .324.32zM93.192 23.87q-.41.682-1.281.652-.616 0-1.07-.455-.228-.233-.342-.5-.113-.269-.113-.588 0-.646.443-1.084.447-.438 1.085-.438.355 0 .654.141.3.139.533.391.028.03.047.078.022.047.028.105.005.061-.025.13-.03.067-.097.134-.106.066-.208.066-.095 0-.2-.06-.291-.35-.732-.35-.383 0-.635.252-.256.247-.256.635 0 .367.264.638.266.267.627.267.546.022.751-.38.122-.189.283-.189.097 0 .189.058.072.053.103.117.033.064.033.136 0 .116-.08.247zM91.2 25.251q0-.141.056-.266.053-.125.145-.22.091-.09.216-.146.125-.053.266-.053.142 0 .267.053.124.055.219.147.091.094.147.219.052.125.052.266 0 .141-.052.266-.056.125-.147.217-.095.094-.22.147-.124.055-.266.055-.141 0-.266-.055-.125-.053-.216-.147-.092-.092-.145-.217-.055-.125-.055-.266zm.561 0q0 .053.036.089.034.036.086.036.056 0 .092-.036.033-.036.033-.089t-.033-.089q-.036-.036-.092-.036-.052 0-.086.036-.036.036-.036.089z" style="font-style:normal;font-variant:normal;font-weight:700;font-stretch:normal;font-size:5.68031px;font-family:Pyidaungsu;-inkscape-font-specification:'Pyidaungsu Bold';stroke-width:.710038"/>
            <path d="M93.001 19.923q0 .141-.078.23-.077.086-.235.117-.308 0-.308-.236 0-.147-.153-.236-.166-.091-.297-.091-.335 0-.393.305 0 .158.069.296.07.136.205.261.114.111.377.236l.267.13q.152.08.152.272 0 .277-.333.338l-.133-.047-.344-.174q-.25-.134-.432-.306-.183-.171-.292-.363-.077-.147-.116-.327-.042-.18-.042-.397.067-.39.35-.618.283-.233.665-.233.386 0 .697.227.31.222.374.608zM100.856 22.968q0 .622-.455 1.093-.239.228-.538.344-.3.12-.694.111l-.105-.014q-.022-.003-.055-.011-.03-.005-.08-.022-.209-.094-.209-.302 0-.32.327-.32l.084.023.1.02q.446 0 .723-.287.125-.116.192-.285.066-.17.066-.35 0-.396-.26-.649-.264-.255-.635-.255-.19 0-.35.064-.158.064-.3.213-.052.048-.097.12-.041.072-.074.158-.034.086-.059.183-.022.094-.036.189 0 .269-.047.49-.044.22-.136.4-.091.177-.23.319-.136.141-.322.25h.003q-.083.05-.16.05-.142 0-.231-.106-.042-.047-.064-.1-.022-.055-.022-.12 0-.188.152-.265.184-.117.292-.322.108-.205.136-.463 0-.48-.261-.769-.255-.29-.644-.29-.366 0-.638.28-.269.277-.269.662 0 .244.128.497.058.116.155.224.1.108.197.18.158.081.158.253 0 .12-.094.227-.047.053-.116.08-.067.031-.15.031l-.128-.044q-.191-.13-.338-.291-.147-.161-.253-.36-.2-.392-.2-.797 0-.635.45-1.107.452-.468 1.098-.468.433 0 .79.224h-.002q.305.186.427.361.022-.028.056-.058l.077-.078q.236-.227.516-.341.28-.117.585-.117.613 0 1.08.46.46.453.46 1.085z" style="font-style:normal;font-variant:normal;font-weight:700;font-stretch:normal;font-size:5.68031px;font-family:Pyidaungsu;-inkscape-font-specification:'Pyidaungsu Bold';stroke-width:.710038"/>
            <path d="M99.391 26.3q0 .15-.091.232-.094.086-.222.086-.322 0-.322-.319v-1.556q.003-.305.32-.319.315 0 .315.32zm.153-1.557q0-.319.319-.319.302.023.305.32v1.248h.344q.302 0 .302.307 0 .32-.302.32h-.652q-.316 0-.316-.32zM101.166 22.12q0-.142.056-.267.053-.124.144-.216.094-.094.22-.147.124-.055.266-.055.141 0 .266.055.125.053.216.147.094.092.147.216.056.125.056.267 0 .141-.056.266-.053.125-.147.219-.091.092-.216.147-.125.053-.266.053-.142 0-.267-.053-.125-.055-.219-.147-.091-.094-.144-.22-.056-.124-.056-.265zm.56 0q0 .052.037.088.036.036.089.036.052 0 .088-.036.037-.036.037-.088 0-.053-.037-.09-.036-.035-.088-.035-.053 0-.09.036-.035.036-.035.089zm-.546 1.7q0-.142.056-.266.053-.125.144-.217.094-.094.22-.147.124-.055.265-.055.142 0 .267.055.124.053.216.147.094.092.147.217.056.124.056.266 0 .141-.056.266-.053.125-.147.22-.091.09-.216.143-.125.056-.267.056-.141 0-.266-.056-.125-.052-.219-.144-.091-.094-.144-.219-.056-.125-.056-.266zm.56 0q0 .053.037.089.036.036.088.036.053 0 .09-.036.035-.036.035-.09 0-.052-.036-.088t-.089-.036q-.052 0-.088.036t-.036.089zM108.192 22.977q0 .615-.46 1.081-.453.46-1.082.46-.6 0-1.093-.454l-.116-.147q-.392.59-1.215.59-.81 0-1.215-.554-.05-.07-.064-.158 0-.161.108-.253l-.008.006q.061-.078.217-.108.147 0 .269.13.25.31.693.31.344 0 .624-.271.277-.275.277-.699 0-.358-.258-.588-.266-.233-.643-.233-.455 0-.707.336-.1.083-.23.108-.342 0-.342-.322 0-.072.072-.205.486-.552 1.207-.552.58 0 1.007.363.424.366.507.935l.011.266q.014.327.267.585.274.283.632.283.372 0 .635-.274.264-.278.264-.646 0-.378-.258-.633-.258-.258-.716-.238h.003l-.141.016q-.316 0-.375-.291 0-.216.164-.313l.166-.03.114-.018.164-.005q.64 0 1.07.427.452.452.452 1.096zM110.25 22.946q.006.006.008.006.097.069.177.163.084.095.153.217.047.083.086.172.039.088.07.163.019.056.033.103l.025.083q.088-.055.135-.13.048-.075.056-.214-.011-.047-.036-.102-.022-.059-.064-.117-.08-.13-.191-.191-.097-.061-.2-.084zm1.37.524q0 .522-.327.805-.106.077-.35.152-.066.017-.088.02l-.04.008v1.903q0 .324-.327.324-.063 0-.119-.025-.055-.025-.097-.07-.042-.04-.067-.102-.024-.058-.024-.127l.005-1.859-.163.009q-.2-.003-.347-.02-.144-.014-.241-.039-.333-.094-.516-.29-.214-.292-.214-.62 0-.252.145-.485.13-.183.305-.263.177-.08.377-.08.06 0 .12.008-.112-.09-.192-.22-.086-.14-.086-.332 0-.125.047-.239.047-.114.141-.222.239-.247.625-.247.177 0 .33.045.152.041.3.169.177.16.235.244.006.033.008.061.006.025.006.047 0 .117-.072.214-.05.066-.128.097-.075.028-.166.02-.047-.003-.128-.059-.077-.055-.166-.141-.03-.023-.089-.036-.058-.014-.13-.014-.117 0-.161.036-.006.008-.011.02-.006.01-.006.013l.006.03q.025.037.116.075.094.04.236.073l-.003-.003.044.01q.025.004.047.01.15.032.297.074.15.039.275.12.244.152.4.385.157.233.193.513zm-1.414.45-.028-.059q-.022-.055-.058-.116-.034-.061-.08-.13v.005q-.084-.105-.128-.144l.006.005q-.098-.066-.2-.102-.1-.04-.197-.045-.105.014-.133.061h.003q-.03.056-.042.095-.008.038-.008.066 0 .103.075.197.014.02.07.045l.152.055q.1.028.202.044.106.017.203.017z" style="font-style:normal;font-variant:normal;font-weight:700;font-stretch:normal;font-size:5.68031px;font-family:Pyidaungsu;-inkscape-font-specification:'Pyidaungsu Bold';stroke-width:.710038"/>
            <path d="M111.346 19.923q0 .141-.078.23-.078.086-.236.117-.308 0-.308-.236 0-.147-.152-.236-.167-.091-.297-.091-.336 0-.394.305 0 .158.07.296.069.136.205.261.113.111.377.236l.266.13q.153.08.153.272 0 .277-.333.338l-.133-.047-.344-.174q-.25-.134-.433-.306-.183-.171-.291-.363-.078-.147-.117-.327-.041-.18-.041-.397.066-.39.35-.618.282-.233.665-.233.385 0 .696.227.31.222.374.608zM111.964 22.12q0-.142.056-.267.052-.124.144-.216.094-.094.219-.147.125-.055.266-.055.142 0 .266.055.125.053.217.147.094.092.147.216.055.125.055.267 0 .141-.055.266-.053.125-.147.219-.092.092-.217.147-.124.053-.266.053-.141 0-.266-.053-.125-.055-.22-.147-.09-.094-.143-.22-.056-.124-.056-.265zm.56 0q0 .052.036.088t.09.036q.052 0 .088-.036t.036-.088q0-.053-.036-.09-.036-.035-.089-.035t-.089.036q-.036.036-.036.089zm-.546 1.7q0-.142.055-.266.053-.125.145-.217.094-.094.219-.147.125-.055.266-.055.141 0 .266.055.125.053.217.147.094.092.147.217.055.124.055.266 0 .141-.055.266-.053.125-.147.22-.092.09-.217.143-.125.056-.266.056-.141 0-.266-.056-.125-.052-.22-.144-.09-.094-.144-.219-.055-.125-.055-.266zm.56 0q0 .053.036.089t.09.036q.052 0 .088-.036t.036-.09q0-.052-.036-.088t-.089-.036q-.053 0-.089.036t-.036.089zM116.76 23.623l-.134.222-.138.188q-.2.2-.513.344-.158.072-.322.108-.161.037-.336.037-.635 0-1.068-.455-.43-.455-.43-1.099 0-.64.464-1.079.46-.432 1.106-.432.458 0 .8.23.185.122.388.383.094.122.113.25 0 .321-.333.321-.2 0-.285-.18-.078-.097-.142-.167-.06-.072-.097-.094-.163-.122-.444-.122-.2 0-.366.067-.163.063-.302.194-.27.252-.27.652 0 .338.162.521.105-.205.302-.341.197-.136.491-.217l.338-.058q.264 0 .505.111t.46.339zm-.688-.017q-.017-.014-.036-.022l.041-.044zm-.755.278q.416 0 .696-.28l.023-.02q-.075-.033-.275-.033-.139 0-.269.05-.13.047-.241.138-.04.036-.07.067-.03.03-.047.061.039.011.083.014.045.003.1.003zM120.055 26.005h.235q.3 0 .325.303 0 .319-.322.335h-.563q-.286-.008-.308-.319v-3.211q0-.489-.252-.752-.13-.133-.289-.197-.155-.067-.352-.067-.297 0-.571.217-.108.086-.18.172-.07.086-.1.166.552.017.851.341.374.405.374.921 0 .61-.374.613-.627.011-1.07-.44-.439-.453-.439-1.096 0-.65.444-1.093.441-.439 1.065-.439.313 0 .585.114.272.114.497.333.113.105.202.255.092.147.144.308.098.291.098.644zm-1.75-2.038v-.033q0-.017-.004-.037l.03.012.037.005zm-.12-.128q.03.02.058.034.028.013.059.024-.006-.041-.017-.088-.011-.047-.028-.103v.003q-.15-.408-.59-.436.008.023.022.05l.036.067q.141.305.46.45zM120.093 22.233q-.008-.014-.008-.03 0-.017.012-.03.21-.273.493-.464v.003q.37-.252.84-.252.769 0 1.221.651.286.42.286.868 0 .824-.663 1.257-.452.294-.916.294-.174 0-.38-.056l-.097-.033-.102-.055q-.236-.075-.236-.314 0-.052.022-.1.025-.05.07-.1.088-.105.219-.105.052 0 .088.011.036.009.061.025l.197.078h-.003q.023.005.059.008.038.003.097.003.377 0 .66-.266v.003q.283-.27.283-.65 0-.147-.042-.28-.042-.133-.114-.247-.05-.072-.13-.135-.078-.067-.183-.114-.203-.103-.402-.103-.27 0-.53.156l.006-.003q-.189.147-.31.338l-.1.147q-.017.028-.045.028-.03-.003-.047-.028zM126.06 23.87q-.411.682-1.282.652-.616 0-1.07-.455-.228-.233-.342-.5-.113-.269-.113-.588 0-.646.443-1.084.447-.438 1.085-.438.355 0 .654.141.3.139.533.391.028.03.047.078.022.047.028.105.006.061-.025.13-.03.067-.097.134-.106.066-.208.066-.095 0-.2-.06-.291-.35-.732-.35-.383 0-.635.252-.256.247-.256.635 0 .367.264.638.266.267.627.267.546.022.751-.38.122-.189.283-.189.097 0 .189.058.072.053.102.117.034.064.034.136 0 .116-.08.247z" style="font-style:normal;font-variant:normal;font-weight:700;font-stretch:normal;font-size:5.68031px;font-family:Pyidaungsu;-inkscape-font-specification:'Pyidaungsu Bold';stroke-width:.710038"/>
            <path d="M125.868 19.923q0 .141-.078.23-.077.086-.235.117-.308 0-.308-.236 0-.147-.153-.236-.166-.091-.297-.091-.335 0-.393.305 0 .158.069.296.07.136.205.261.114.111.377.236l.267.13q.152.08.152.272 0 .277-.333.338l-.133-.047-.344-.174q-.25-.134-.432-.306-.184-.171-.292-.363-.077-.147-.116-.327-.042-.18-.042-.397.067-.39.35-.618.283-.233.665-.233.386 0 .697.227.31.222.374.608zM126.487 22.12q0-.142.055-.267.053-.124.144-.216.095-.094.22-.147.124-.055.266-.055.141 0 .266.055.125.053.216.147.095.092.147.216.056.125.056.267 0 .141-.056.266-.052.125-.147.219-.091.092-.216.147-.125.053-.266.053-.142 0-.267-.053-.124-.055-.219-.147-.091-.094-.144-.22-.055-.124-.055-.265zm.56 0q0 .052.036.088t.089.036q.052 0 .088-.036.037-.036.037-.088 0-.053-.037-.09-.036-.035-.088-.035-.053 0-.09.036-.035.036-.035.089zm-.547 1.7q0-.142.056-.266.053-.125.144-.217.094-.094.22-.147.124-.055.266-.055.141 0 .266.055.125.053.216.147.094.092.147.217.056.124.056.266 0 .141-.056.266-.053.125-.147.22-.091.09-.216.143-.125.056-.266.056-.142 0-.267-.056-.125-.052-.219-.144-.091-.094-.144-.219-.056-.125-.056-.266zm.56 0q0 .053.037.089.036.036.089.036.052 0 .088-.036t.036-.09q0-.052-.036-.088t-.088-.036q-.053 0-.09.036-.035.036-.035.089zM131.318 22.98q0 .629-.455 1.09-.457.452-1.087.452-.635 0-1.082-.453-.44-.452-.44-1.09 0-.649.438-1.084.438-.438 1.084-.438.632 0 1.087.449.455.45.455 1.073zm-.638 0q0-.361-.269-.622-.272-.266-.635-.266-.383 0-.635.252-.253.244-.253.635 0 .38.258.641.264.264.63.264.374 0 .638-.267.266-.269.266-.638zM134.602 24.07q.189.224.241.271.053.047-.036-.102l-.102-.08q-.05-.042-.103-.09zm2.624-1.082q0 .613-.458 1.079-.463.457-1.07.457-.489 0-.89-.285-.04-.067-.109-.175l-.17-.258q.012.028 0 .05l-.018.036q-.008.017-.023.033l.114.144v-.002l-.055-.064-.061-.075q-.064.097-.17.189-.102.088-.252.177-.344.214-.788.214-.643 0-1.087-.464-.45-.466-.45-1.095 0-.203.05-.4.053-.196.15-.388.106-.197.25-.358.144-.16.336-.29l.15-.037q.069 0 .13.028.064.025.108.07.044.04.07.102.027.058.027.125 0 .169-.155.258h.003q-.111.072-.2.169-.086.097-.15.224-.064.128-.094.253-.03.122-.03.244 0 .38.26.657h-.003q.26.275.635.275.36 0 .63-.264.266-.26.266-.621v-.047q0-.322-.125-.535-.047-.086-.133-.18-.083-.095-.208-.195-.108-.133-.108-.238 0-.061.022-.12.022-.06.064-.105.044-.044.105-.072.061-.028.136-.028l.12.033q.19.114.332.256.142.138.233.316.092.174.136.39.047.217.047.478 0 .177.067.358.066.177.2.302.133.141.3.21.168.07.338.07.355 0 .632-.272.12-.113.186-.283.069-.169.069-.346 0-.377-.26-.627-.134-.142-.317-.208-.18-.07-.388-.07l-.128.017q-.177 0-.277-.083-.1-.086-.1-.225 0-.23.144-.277.061-.02.106-.03.047-.012.083-.017l.066-.009q.028-.005.05-.005.746 0 1.204.458.458.463.458 1.076z" style="font-style:normal;font-variant:normal;font-weight:700;font-stretch:normal;font-size:5.68031px;font-family:Pyidaungsu;-inkscape-font-specification:'Pyidaungsu Bold';stroke-width:.710038"/>
            <path d="M136.935 19.923q0 .141-.078.23-.078.086-.236.117-.308 0-.308-.236 0-.147-.152-.236-.167-.091-.297-.091-.336 0-.394.305 0 .158.07.296.069.136.205.261.113.111.377.236l.266.13q.153.08.153.272 0 .277-.333.338l-.133-.047-.344-.174q-.25-.134-.433-.306-.183-.171-.291-.363-.078-.147-.117-.327-.041-.18-.041-.397.066-.39.35-.618.282-.233.665-.233.385 0 .696.227.31.222.375.608zM140.72 23.623l-.133.222-.138.188q-.2.2-.513.344-.158.072-.322.108-.16.037-.336.037-.635 0-1.068-.455-.43-.455-.43-1.099 0-.64.464-1.079.46-.432 1.106-.432.458 0 .8.23.185.122.388.383.094.122.113.25 0 .321-.333.321-.2 0-.285-.18-.078-.097-.142-.167-.06-.072-.097-.094-.163-.122-.444-.122-.2 0-.366.067-.163.063-.302.194-.27.252-.27.652 0 .338.162.521.105-.205.302-.341.197-.136.491-.217l.338-.058q.264 0 .505.111.242.111.46.339zm-.687-.017q-.017-.014-.036-.022l.041-.044zm-.755.278q.416 0 .696-.28l.023-.02q-.075-.033-.275-.033-.139 0-.269.05-.13.047-.241.138l-.07.067q-.03.03-.047.061.04.011.083.014.045.003.1.003zM144.016 26.005h.235q.3 0 .325.303 0 .319-.322.335h-.563q-.286-.008-.308-.319v-3.211q0-.489-.252-.752-.13-.133-.289-.197-.155-.067-.352-.067-.297 0-.571.217-.108.086-.18.172-.07.086-.1.166.552.017.851.341.375.405.375.921 0 .61-.375.613-.627.011-1.07-.44-.439-.453-.439-1.096 0-.65.444-1.093.441-.439 1.065-.439.314 0 .585.114.272.114.497.333.114.105.202.255.092.147.145.308.097.291.097.644zm-1.75-2.038v-.033q0-.017-.004-.037l.031.012.036.005zm-.12-.128q.03.02.059.034.027.013.058.024-.006-.041-.017-.088-.011-.047-.028-.103v.003q-.15-.408-.59-.436.008.023.022.05l.036.067q.141.305.46.45zM144.365 22.12q0-.142.056-.267.052-.124.144-.216.094-.094.219-.147.125-.055.266-.055.142 0 .266.055.125.053.217.147.094.092.147.216.055.125.055.267 0 .141-.055.266-.053.125-.147.219-.092.092-.217.147-.124.053-.266.053-.141 0-.266-.053-.125-.055-.22-.147-.09-.094-.143-.22-.056-.124-.056-.265zm.56 0q0 .052.036.088t.09.036q.052 0 .088-.036t.036-.088q0-.053-.036-.09-.036-.035-.089-.035t-.089.036q-.036.036-.036.089zm-.546 1.7q0-.142.055-.266.053-.125.145-.217.094-.094.219-.147.125-.055.266-.055.142 0 .266.055.125.053.217.147.094.092.147.217.055.124.055.266 0 .141-.055.266-.053.125-.147.22-.092.09-.217.143-.124.056-.266.056-.141 0-.266-.056-.125-.052-.22-.144-.09-.094-.144-.219-.055-.125-.055-.266zm.56 0q0 .053.036.089t.089.036q.053 0 .089-.036t.036-.09q0-.052-.036-.088t-.089-.036q-.053 0-.089.036t-.036.089zM149.197 22.98q0 .629-.455 1.09-.458.452-1.087.452-.636 0-1.082-.453-.441-.452-.441-1.09 0-.649.438-1.084.438-.438 1.085-.438.632 0 1.087.449.455.45.455 1.073zm-.638 0q0-.361-.27-.622-.271-.266-.634-.266-.383 0-.636.252-.252.244-.252.635 0 .38.258.641.263.264.63.264.374 0 .637-.267.267-.269.267-.638zM151.216 22.946q.006.006.008.006.097.069.177.163.084.095.153.217.047.083.086.172.039.088.07.163.019.056.033.103l.025.083q.088-.055.135-.13.048-.075.056-.214-.011-.047-.036-.102-.022-.059-.064-.117-.08-.13-.191-.191-.097-.061-.2-.084zm1.37.524q0 .522-.327.805-.106.077-.35.152-.066.017-.089.02l-.038.008v1.903q0 .324-.328.324-.063 0-.119-.025-.055-.025-.097-.07-.042-.04-.067-.102-.025-.058-.025-.127l.006-1.859-.163.009q-.2-.003-.347-.02-.144-.014-.241-.039-.333-.094-.516-.29-.214-.292-.214-.62 0-.252.145-.485.13-.183.305-.263.177-.08.377-.08.06 0 .12.008-.112-.09-.192-.22-.086-.14-.086-.332 0-.125.047-.239.047-.114.141-.222.239-.247.624-.247.178 0 .33.045.153.041.3.169.177.16.236.244.006.033.008.061.006.025.006.047 0 .117-.072.214-.05.066-.128.097-.075.028-.166.02-.048-.003-.128-.059-.078-.055-.166-.141-.03-.023-.09-.036-.057-.014-.13-.014-.116 0-.16.036-.006.008-.012.02-.006.01-.006.013l.006.03q.025.037.117.075.094.04.236.073l-.003-.003.044.01q.025.004.047.01.15.032.297.074.15.039.275.12.244.152.399.385.158.233.194.513zm-1.415.45-.027-.059q-.022-.055-.058-.116-.034-.061-.08-.13v.005q-.084-.105-.128-.144l.006.005q-.098-.066-.2-.102-.1-.04-.197-.045-.105.014-.133.061h.003q-.03.056-.042.095-.008.038-.008.066 0 .103.075.197.014.02.07.045l.152.055q.1.028.202.044.106.017.203.017z" style="font-style:normal;font-variant:normal;font-weight:700;font-stretch:normal;font-size:5.68031px;font-family:Pyidaungsu;-inkscape-font-specification:'Pyidaungsu Bold';stroke-width:.710038"/>
            <path d="M152.311 19.923q0 .141-.077.23-.078.086-.236.117-.308 0-.308-.236 0-.147-.152-.236-.167-.091-.297-.091-.336 0-.394.305 0 .158.07.296.069.136.204.261.114.111.378.236l.266.13q.153.08.153.272 0 .277-.333.338l-.133-.047-.344-.174q-.25-.134-.433-.306-.183-.171-.291-.363-.078-.147-.117-.327-.041-.18-.041-.397.066-.39.35-.618.282-.233.665-.233.385 0 .696.227.31.222.374.608zM159.47 25.326q0 .225-.086.438-.083.214-.238.405-.195.236-.45.355-.255.12-.563.12h-3.741q-.544 0-.935-.4-.388-.4-.388-.949V20.4q0-.139.022-.266.025-.128.075-.247l-.003.003q.091-.236.252-.41.164-.176.402-.287.261-.113.569-.113h2.366q.174 0 .283.152l.038.15q0 .336-.321.336h-2.366q-.164 0-.289.047-.122.047-.213.136-.178.18-.178.499v4.895q0 .197.056.305.016.048.064.109.047.063.122.147v-.003q.141.152.443.152h3.742q.305 0 .496-.216.2-.21.2-.463V23.81q0-.31.314-.31.327 0 .327.31z" style="font-style:normal;font-variant:normal;font-weight:700;font-stretch:normal;font-size:5.68031px;font-family:Pyidaungsu;-inkscape-font-specification:'Pyidaungsu Bold';stroke-width:.710038"/>
            <path d="M159.656 22.968q0 .622-.455 1.093-.239.228-.538.344-.3.12-.693.111l-.106-.014q-.022-.003-.055-.011-.03-.005-.08-.022-.209-.094-.209-.302 0-.32.327-.32l.084.023.1.02q.446 0 .723-.287.125-.116.192-.285.066-.17.066-.35 0-.396-.26-.649-.264-.255-.635-.255-.189 0-.35.064-.158.064-.3.213-.052.048-.097.12-.041.072-.074.158-.034.086-.059.183-.022.094-.036.189 0 .269-.047.49-.044.22-.136.4-.091.177-.23.319-.136.141-.322.25h.003q-.083.05-.16.05-.142 0-.23-.106-.042-.047-.065-.1-.022-.055-.022-.12 0-.188.153-.265.183-.117.29-.322.11-.205.137-.463 0-.48-.26-.769-.256-.29-.644-.29-.366 0-.638.28-.27.277-.27.662 0 .244.128.497.058.116.156.224.1.108.197.18.158.081.158.253 0 .12-.095.227-.047.053-.116.08-.067.031-.15.031l-.128-.044q-.19-.13-.338-.291-.147-.161-.252-.36-.2-.392-.2-.797 0-.635.45-1.107.451-.468 1.098-.468.432 0 .79.224h-.003q.305.186.427.361.022-.028.056-.058l.077-.078q.236-.227.516-.341.28-.117.586-.117.613 0 1.078.46.46.453.46 1.085z" style="font-style:normal;font-variant:normal;font-weight:700;font-stretch:normal;font-size:5.68031px;font-family:Pyidaungsu;-inkscape-font-specification:'Pyidaungsu Bold';stroke-width:.710038"/>
            <path d="M159.448 20.311q0 .486-.363.857-.372.366-.855.366-.496 0-.854-.357-.355-.37-.355-.866 0-.507.35-.87.346-.361.86-.361.498 0 .86.369.357.366.357.862zm-1.906.13.05-.047q.025-.025.056-.044-.003.164-.033.203-.031.036-.08-.048-.009-.013-.007-.033 0-.02.014-.03zm1.276-.13q0-.241-.174-.424-.178-.186-.414-.186-.252 0-.419.18-.163.167-.163.43v.04q.23-.167.546-.167.114 0 .228.025.11.025.208.069.058.028.105.053.047.025.083.05zm-.269.574-.022-.022-.025-.02q.014-.005.028-.013l.027-.022zm-.319.028q.153 0 .272-.07-.1-.06-.294-.077-.175 0-.272.067.128.08.294.08zM159.967 22.12q0-.142.055-.267.053-.124.144-.216.095-.094.22-.147.124-.055.266-.055.141 0 .266.055.125.053.216.147.095.092.147.216.056.125.056.267 0 .141-.056.266-.052.125-.147.219-.091.092-.216.147-.125.053-.266.053-.142 0-.267-.053-.124-.055-.219-.147-.091-.094-.144-.22-.055-.124-.055-.265zm.56 0q0 .052.036.088t.089.036q.052 0 .088-.036t.036-.088q0-.053-.036-.09-.036-.035-.088-.035-.053 0-.09.036-.035.036-.035.089zm-.547 1.7q0-.142.056-.266.053-.125.144-.217.094-.094.22-.147.124-.055.265-.055.142 0 .267.055.125.053.216.147.094.092.147.217.056.124.056.266 0 .141-.056.266-.053.125-.147.22-.091.09-.216.143-.125.056-.267.056-.141 0-.266-.056-.125-.052-.219-.144-.091-.094-.144-.219-.056-.125-.056-.266zm.56 0q0 .053.037.089.036.036.088.036.053 0 .09-.036.035-.036.035-.09 0-.052-.036-.088t-.089-.036q-.052 0-.088.036t-.036.089zM164.626 25.581q0 .491-.255.774-.258.288-.804.288l-1.132-.002q-.344 0-.538-.303l.003.003q-.166-.236-.166-.56 0-.622.46-.866v.003q.227-.141.494-.141.416 0 .746.294.08.08.094.227 0 .327-.319.327-.128 0-.227-.108-.059-.05-.136-.08-.075-.028-.158-.028-.211 0-.294.167v-.003q-.025.047-.025.152 0 .28.066.28h1.237q.08 0 .142-.022.06-.02.102-.07.042-.046.061-.13.023-.08.023-.202v-1.212q-.278.164-.738.164-.622 0-1.065-.458-.447-.46-.447-1.087 0-.644.438-1.082.436-.435 1.074-.435.355 0 .652.141.296.141.524.4.027.027.044.074.02.047.033.12 0 .335-.305.335-.094 0-.233-.089-.288-.343-.715-.343-.383 0-.63.246-.247.247-.247.633 0 .371.258.64.258.27.619.27.477 0 .69-.306l.07-.066q.044-.022.094-.042.05-.02.114-.033l.08.028q.103.002.178.097.075.091.133.28zM164.585 22.233q-.008-.014-.008-.03 0-.017.01-.03.211-.273.494-.464v.003q.37-.252.84-.252.769 0 1.221.651.286.42.286.868 0 .824-.663 1.257-.452.294-.915.294-.175 0-.38-.056l-.097-.033-.103-.055q-.236-.075-.236-.314 0-.052.022-.1.025-.05.07-.1.088-.105.219-.105.052 0 .088.011.037.009.061.025l.197.078h-.003q.023.005.059.008.038.003.097.003.377 0 .66-.266v.003q.283-.27.283-.65 0-.147-.042-.28-.041-.133-.114-.247-.05-.072-.13-.135-.078-.067-.183-.114-.202-.103-.402-.103-.27 0-.53.156l.006-.003q-.189.147-.31.338l-.1.147q-.017.028-.045.028-.03-.003-.047-.028zM169.347 22.946q.006.006.008.006.097.069.177.163.084.095.153.217.047.083.086.172.039.088.07.163.019.056.032.103l.025.083q.09-.055.136-.13.047-.075.056-.214-.011-.047-.036-.102-.022-.059-.064-.117-.08-.13-.191-.191-.098-.061-.2-.084zm1.37.524q0 .522-.327.805-.106.077-.35.152-.066.017-.089.02l-.038.008v1.903q0 .324-.328.324-.064 0-.119-.025-.055-.025-.097-.07-.042-.04-.067-.102-.025-.058-.025-.127l.006-1.859-.163.009q-.2-.003-.347-.02-.144-.014-.241-.039-.333-.094-.516-.29-.214-.292-.214-.62 0-.252.144-.485.13-.183.306-.263.177-.08.377-.08.06 0 .119.008-.11-.09-.191-.22-.086-.14-.086-.332 0-.125.047-.239.047-.114.141-.222.239-.247.624-.247.178 0 .33.045.153.041.3.169.177.16.236.244.006.033.008.061.006.025.006.047 0 .117-.072.214-.05.066-.128.097-.075.028-.166.02-.047-.003-.128-.059-.078-.055-.166-.141-.03-.023-.09-.036-.057-.014-.13-.014-.116 0-.16.036-.006.008-.011.02-.006.01-.006.013l.006.03q.025.037.116.075.094.04.236.073l-.003-.003.044.01q.025.004.047.01.15.032.297.074.15.039.275.12.244.152.4.385.157.233.193.513zm-1.415.45-.027-.059q-.022-.055-.058-.116-.034-.061-.08-.13v.005q-.084-.105-.128-.144l.006.005q-.098-.066-.2-.102-.1-.04-.197-.045-.105.014-.133.061h.003q-.03.056-.042.095-.008.038-.008.066 0 .103.075.197.014.02.07.045l.152.055q.1.028.202.044.106.017.203.017z" style="font-style:normal;font-variant:normal;font-weight:700;font-stretch:normal;font-size:5.68031px;font-family:Pyidaungsu;-inkscape-font-specification:'Pyidaungsu Bold';stroke-width:.710038"/>
        </g>
    </g>
    <path style="fill:#000;fill-opacity:0;stroke:#0b72ba;stroke-width:.244384;stroke-linecap:butt;stroke-linejoin:miter;stroke-miterlimit:4;stroke-dasharray:none;stroke-opacity:1" d="M18.482 8.324h39.114" fill="none" transform="translate(-.805 -.713)"/>
    <g aria-label="Ministry of Commerce" style="font-style:normal;font-weight:400;font-size:3.88056px;line-height:1.25;font-family:sans-serif;fill:#000;fill-opacity:1;stroke:none;stroke-width:.264583">
        <path d="M21.802 12.365h-1.188v-.135q.065-.002.165-.013.103-.012.14-.032.06-.036.086-.082.028-.047.028-.117V10.03h-.028l-.917 2.291h-.095l-.874-2.338h-.024v1.605q0 .233.028.354.03.121.091.174.042.04.173.076.13.036.17.038v.135h-1.086v-.135q.086-.008.179-.028.094-.021.145-.063.067-.053.091-.163.025-.11.025-.367v-1.376q0-.12-.028-.195-.029-.076-.082-.123-.059-.052-.144-.076-.085-.025-.169-.029v-.134h.918l.769 2.016.657-1.686q.036-.093.061-.194.027-.102.028-.136h.878v.134q-.053.002-.137.017-.081.016-.12.029-.064.023-.086.076-.023.053-.023.115v1.939q0 .066.023.111.022.046.087.08.034.019.121.036.087.015.138.017zM23.023 12.365h-.904v-.125l.089-.008q.047-.004.081-.015.054-.017.078-.059.027-.044.027-.112v-1.154q0-.06-.029-.11-.026-.05-.076-.085-.036-.023-.104-.038-.068-.017-.125-.02v-.124l.66-.041.026.026v1.524q0 .066.025.11.026.043.081.064.042.017.082.028.04.01.089.014zm-.239-2.628q0 .108-.072.189-.07.08-.174.08-.097 0-.169-.076-.07-.078-.07-.176 0-.105.07-.182.072-.078.169-.078.108 0 .176.074.07.072.07.169zM25.315 12.365H24.4v-.125l.095-.008q.053-.004.087-.015.053-.017.078-.059.026-.044.026-.112v-.96q0-.2-.094-.307-.093-.108-.228-.108-.1 0-.184.032-.083.03-.147.076-.063.043-.1.094-.037.05-.054.08v1.074q0 .065.027.106.026.042.08.065.04.019.085.028.047.01.096.014v.125h-.915v-.125l.09-.008q.046-.004.08-.015.054-.017.078-.059.027-.044.027-.112v-1.154q0-.064-.029-.117-.026-.055-.075-.09-.036-.022-.086-.031-.049-.012-.106-.016v-.123l.622-.041.026.026v.263h.01q.045-.045.113-.108.069-.064.13-.104.07-.045.166-.076.097-.03.218-.03.269 0 .398.169.13.166.13.445v.972q0 .066.023.108.023.04.078.063.045.019.078.026.034.008.093.011zM26.452 12.365h-.903v-.125l.089-.008q.047-.004.081-.015.053-.017.078-.059.026-.044.026-.112v-1.154q0-.06-.028-.11-.027-.05-.076-.085-.036-.023-.104-.038-.068-.017-.125-.02v-.124l.66-.041.026.026v1.524q0 .066.024.11.027.043.082.064.042.017.081.028.04.01.09.014zm-.238-2.628q0 .108-.072.189-.07.08-.175.08-.096 0-.168-.076-.07-.078-.07-.176 0-.105.07-.182.072-.078.168-.078.108 0 .176.074.07.072.07.169zM27.915 11.45q.078.068.12.157.041.089.041.218 0 .26-.195.424-.193.165-.502.165-.163 0-.301-.059-.137-.059-.196-.108l-.037.123h-.143l-.018-.65h.13q.015.074.065.173.049.098.119.178.074.083.176.14.104.057.233.057.182 0 .28-.082.1-.083.1-.236 0-.08-.033-.137-.03-.059-.09-.102-.063-.044-.154-.078-.091-.036-.203-.07-.09-.026-.2-.072-.107-.047-.185-.11-.083-.066-.136-.163-.053-.096-.053-.227 0-.23.17-.389t.457-.159q.11 0 .224.029.115.028.187.068l.044-.099h.136l.029.601h-.131q-.04-.2-.173-.326-.13-.127-.32-.127-.155 0-.244.078-.09.078-.09.187 0 .086.03.143.03.056.088.096.057.038.142.072.087.032.214.074.125.04.235.093.112.053.184.117zM29.512 12.283q-.123.051-.233.085-.11.036-.269.036-.235 0-.331-.117-.095-.12-.095-.335v-1.266h-.337v-.182h.345v-.582h.344v.582h.537v.182h-.533v1.044q0 .117.008.197.01.078.042.136.03.055.09.084.061.028.163.028.048 0 .139-.007.093-.01.13-.023zM31.129 10.737q0 .097-.048.172-.047.074-.146.074-.106 0-.163-.055-.054-.055-.054-.12 0-.043.005-.077l.014-.068q-.09 0-.209.072-.12.072-.203.205v1.087q0 .067.025.108.026.042.081.063.048.019.122.028.075.01.13.014v.125h-.985v-.125l.09-.008q.047-.004.08-.015.054-.017.078-.059.027-.044.027-.112v-1.154q0-.058-.029-.115-.026-.057-.075-.091-.036-.023-.086-.032-.049-.012-.106-.016v-.123l.622-.041.026.026v.263h.01q.117-.153.261-.233.144-.08.264-.08.12 0 .193.079.076.077.076.208z" style="font-style:normal;font-variant:normal;font-weight:400;font-stretch:normal;font-size:3.88056px;font-family:Georgia;-inkscape-font-specification:Georgia;stroke-width:.264583" transform="translate(-.805 -.713)"/>
        <path d="M31.146 12.975q0-.095.05-.156.054-.058.132-.058.06 0 .104.022.043.023.078.06.028.028.06.077l.051.081q.095-.05.226-.267.132-.216.191-.379-.18-.449-.326-.803-.146-.355-.305-.734-.036-.087-.121-.134-.085-.05-.17-.063v-.125h.852v.133q-.057.002-.136.025-.08.02-.08.049 0 .011.008.038l.02.055q.073.187.22.542.148.352.23.564l.176-.418q.093-.218.206-.514l.038-.098q.025-.065.025-.11 0-.05-.087-.091-.086-.044-.163-.053v-.122h.693v.118q-.057.01-.15.066-.092.055-.138.157-.225.523-.401.953-.175.43-.266.633-.12.266-.214.413-.093.15-.182.235-.087.08-.159.106-.07.029-.146.029-.148 0-.233-.07-.083-.07-.083-.161zM35.955 11.412q0 .197-.063.388-.062.19-.178.322-.13.152-.303.226-.172.073-.387.073-.178 0-.339-.066-.16-.068-.286-.197-.123-.127-.197-.309-.072-.184-.072-.411 0-.438.254-.716.256-.279.669-.279.392 0 .646.266.256.263.256.703zm-.392.003q0-.142-.029-.3-.028-.158-.085-.268-.06-.118-.16-.188-.098-.072-.24-.072-.146 0-.25.072-.102.072-.167.197-.06.116-.085.264-.025.148-.025.286 0 .182.029.337.03.154.094.275.065.121.162.191.098.068.242.068.237 0 .375-.229.139-.23.139-.633zM37.617 9.657q0 .085-.046.144-.045.059-.138.059-.059 0-.104-.025-.044-.025-.082-.066-.038-.042-.07-.095-.032-.053-.055-.085-.127.005-.197.178-.068.17-.068.546v.19h.481v.183h-.481v1.341q0 .067.024.108.027.042.082.063.045.017.121.028.076.01.13.014v.125h-.984v-.125l.089-.008q.047-.004.081-.015.053-.017.078-.059.026-.044.026-.112v-1.36h-.37v-.182h.37v-.12q0-.426.22-.69.222-.264.553-.264.169 0 .254.066.086.066.086.16zM39.657 12.427q-.24 0-.462-.095-.22-.094-.39-.272-.17-.179-.27-.434-.1-.258-.1-.58 0-.322.099-.584.098-.263.272-.453.173-.187.408-.29.235-.102.502-.102.199 0 .36.05.161.049.307.138l.078-.13h.151l.017.96h-.155q-.03-.14-.091-.304-.06-.164-.142-.278-.091-.129-.216-.2-.125-.075-.286-.075-.184 0-.343.082-.158.081-.273.24-.11.154-.173.39-.062.237-.062.53 0 .257.064.473.067.214.188.377.121.161.286.252.167.091.371.091.154 0 .283-.047.129-.05.223-.13.095-.083.167-.189.072-.106.118-.23l.142.067q-.163.4-.432.573-.27.17-.64.17zM42.736 11.412q0 .197-.062.388-.063.19-.178.322-.131.152-.304.226-.172.073-.386.073-.178 0-.34-.066-.16-.068-.285-.197-.124-.127-.197-.309-.072-.184-.072-.411 0-.438.253-.716.256-.279.67-.279.392 0 .645.266.256.263.256.703zm-.392.003q0-.142-.028-.3-.029-.158-.086-.268-.06-.118-.159-.188-.098-.072-.24-.072-.146 0-.25.072-.103.072-.167.197-.06.116-.086.264-.024.148-.024.286 0 .182.028.337.03.154.095.275.064.121.161.191.099.068.243.068.236 0 .375-.229.138-.23.138-.633zM46.208 12.365h-.912v-.125l.087-.008q.046-.004.08-.015.053-.017.078-.059.026-.044.026-.112v-.964q0-.197-.09-.303-.09-.108-.224-.108-.093 0-.175.028-.081.028-.15.08-.054.041-.092.09-.036.048-.055.08v1.078q0 .067.023.11.022.042.077.065.044.017.078.026.036.008.093.012v.125h-.893v-.125l.084-.008q.041-.004.075-.015.054-.017.078-.059.027-.044.027-.112v-.964q0-.197-.091-.303-.09-.108-.224-.108-.093 0-.174.03-.082.028-.15.08-.055.041-.093.094l-.057.078v1.07q0 .065.027.108.026.044.08.067.04.019.081.028.042.01.093.013v.126h-.908v-.126l.09-.007q.047-.004.08-.015.054-.017.078-.059.027-.044.027-.112v-1.161q0-.06-.028-.108-.027-.05-.076-.084-.036-.022-.09-.036-.052-.015-.11-.019v-.123l.626-.041.027.026v.267h.013q.047-.047.116-.112.068-.064.126-.104.067-.045.165-.076.1-.03.216-.03.182 0 .313.099.13.096.188.235l.119-.116q.053-.051.138-.108.072-.05.169-.08.098-.03.218-.03.237 0 .375.156.138.155.138.477v.95q0 .066.023.11.023.04.078.064.043.017.085.026.044.008.097.012zM49.626 12.365h-.912v-.125l.088-.008q.045-.004.08-.015.052-.017.077-.059.026-.044.026-.112v-.964q0-.197-.09-.303-.09-.108-.224-.108-.093 0-.175.028-.081.028-.15.08-.054.041-.092.09-.036.048-.055.08v1.078q0 .067.023.11.022.042.077.065.044.017.078.026.036.008.093.012v.125h-.892v-.125l.083-.008q.042-.004.076-.015.053-.017.077-.059.027-.044.027-.112v-.964q0-.197-.091-.303-.09-.108-.224-.108-.092 0-.174.03-.081.028-.15.08-.055.041-.092.094l-.057.078v1.07q0 .065.026.108.027.044.08.067.04.019.081.028.042.01.093.013v.126h-.908v-.126l.09-.007q.047-.004.081-.015.053-.017.078-.059.026-.044.026-.112v-1.161q0-.06-.028-.108-.027-.05-.076-.084-.036-.022-.089-.036-.053-.015-.11-.019v-.123l.625-.041.027.026v.267h.013l.116-.112q.068-.064.127-.104.066-.045.165-.076.1-.03.216-.03.181 0 .312.099.13.096.188.235l.12-.116q.052-.051.137-.108.072-.05.17-.08.098-.03.217-.03.237 0 .375.156.139.155.139.477v.95q0 .066.022.11.023.04.078.064.044.017.085.026.044.008.097.012zM51.504 11.925q-.118.224-.315.356-.197.133-.453.133-.225 0-.396-.08-.168-.08-.278-.216-.11-.136-.165-.318-.053-.182-.053-.385 0-.182.057-.356.058-.176.17-.316.108-.135.267-.216.161-.084.36-.084.205 0 .35.065.147.064.238.176.087.106.128.25.044.144.044.313v.125h-1.237q0 .184.034.333.036.15.112.264.074.11.193.174.12.062.284.062.169 0 .29-.077.123-.08.237-.284zm-.42-.712q0-.107-.018-.228-.017-.121-.057-.203-.044-.087-.12-.142-.075-.055-.195-.055-.198 0-.331.167-.13.165-.142.46zM53.15 10.737q0 .097-.047.172-.048.074-.146.074-.106 0-.163-.055-.055-.055-.055-.12 0-.043.006-.077l.013-.068q-.09 0-.209.072t-.202.205v1.087q0 .067.024.108.027.042.082.063.047.019.121.028.076.01.13.014v.125h-.984v-.125l.089-.008q.047-.004.081-.015.053-.017.078-.059.026-.044.026-.112v-1.154q0-.058-.028-.115-.027-.057-.076-.091-.036-.023-.085-.032-.05-.012-.106-.016v-.123l.621-.041.027.026v.263h.01q.117-.153.26-.233.145-.08.264-.08.12 0 .193.079.076.077.076.208zM54.173 12.414q-.405 0-.634-.27-.23-.268-.23-.721 0-.197.06-.368.063-.172.18-.312.113-.135.281-.216.169-.084.368-.084.275 0 .447.133.173.13.173.358 0 .095-.046.169-.045.072-.15.072-.111 0-.174-.057-.06-.057-.06-.127 0-.085.022-.174.023-.091.027-.133-.034-.059-.103-.078-.066-.02-.144-.02-.09 0-.174.04-.081.037-.16.141-.07.095-.113.256t-.043.385q0 .352.155.576.157.221.411.221.184 0 .307-.089.125-.089.231-.267l.122.08q-.125.223-.33.354-.205.13-.423.13zM56.731 11.925q-.117.224-.314.356-.197.133-.453.133-.226 0-.396-.08-.169-.08-.279-.216-.11-.136-.164-.318-.054-.182-.054-.385 0-.182.057-.356.059-.176.17-.316.109-.135.268-.216.161-.084.36-.084.205 0 .35.065.146.064.237.176.088.106.13.25.043.144.043.313v.125h-1.237q0 .184.034.333.036.15.111.264.074.11.194.174.12.062.284.062.169 0 .29-.077.123-.08.237-.284zm-.418-.712q0-.107-.02-.228-.016-.121-.056-.203-.044-.087-.12-.142-.075-.055-.195-.055-.199 0-.331.167-.131.165-.142.46z" style="font-style:normal;font-variant:normal;font-weight:400;font-stretch:normal;font-size:3.88056px;font-family:Georgia;-inkscape-font-specification:Georgia;stroke-width:.264583" transform="translate(-.805 -.713)"/>
    </g>
    <path d="M4.904 14.044a.52.52 0 0 0 .007.378c.03.061.08.13.096.13.003 0 .016.01.028.02.012.012.027.02.034.02.008 0 .014.004.014.009 0 .017.072.035.08.02.07-.11-.048-.55-.146-.55a.197.197 0 0 1-.036-.03c-.041-.039-.064-.038-.077.003m8.277-.022-.066.062a.498.498 0 0 0-.154.388c0 .172.006.18.1.13.176-.092.259-.33.185-.53a1.09 1.09 0 0 1-.02-.058c0-.006-.036 0-.045.008m-7.7.16c-.177.19-.2.457-.055.616.04.044.046.044.077-.002a.418.418 0 0 0 .065-.101c.097-.193.095-.431-.005-.56l-.018-.023-.065.07m7.07.008c-.066.136-.057.381.019.496a.735.735 0 0 1 .034.057c.033.064.076.099.096.078.112-.12.152-.345.08-.453a.076.076 0 0 1-.014-.033c0-.029-.15-.223-.172-.223a.476.476 0 0 0-.043.078m-6.754.226c-.11.225-.087.426.063.573.076.076.104.083.128.032.082-.178.066-.464-.034-.592-.092-.12-.105-.12-.157-.013m6.439-.043c-.138.159-.172.422-.084.642.018.045.04.05.087.017.186-.13.23-.398.104-.634-.04-.075-.06-.08-.107-.025m-5.948.258a.65.65 0 0 0-.078.211c-.025.118.003.292.056.356.111.133.213.193.235.138.066-.158.03-.463-.068-.59-.06-.077-.124-.128-.145-.115m5.477.052a.558.558 0 0 0-.098.142.147.147 0 0 0-.022.058c0 .012-.005.03-.01.041-.044.08-.022.416.028.435.014.006.074-.02.106-.045a.478.478 0 0 0 .156-.519c-.05-.177-.08-.2-.16-.112m-7.057.002c-.053.019-.115.051-.115.06 0 .004-.009.008-.019.008-.02 0-.051.03-.051.047 0 .018.174.154.198.154.005 0 .024.007.043.017.05.025.1.042.127.043.012 0 .022.004.022.01s.033.01.08.01c.044 0 .082-.005.086-.01.003-.006.023-.01.045-.01.021 0 .041-.005.045-.01.003-.006.016-.01.028-.011.026-.001.112-.061.112-.079 0-.03-.082-.111-.155-.152a.319.319 0 0 1-.044-.031.07.07 0 0 0-.038-.018c-.01 0-.02-.004-.023-.009-.014-.023-.287-.038-.341-.019m8.46-.002a.529.529 0 0 0-.21.102c-.001.004-.006.008-.012.008-.017 0-.11.1-.11.119 0 .016.06.061.08.061a.01.01 0 0 1 .01.01c0 .006.011.01.024.01.013 0 .027.004.03.008.04.04.248.04.32.002a.084.084 0 0 1 .032-.01c.008 0 .03-.008.05-.02a.158.158 0 0 1 .05-.02c.01 0 .016-.003.016-.008s.014-.016.032-.025a.37.37 0 0 0 .072-.05.226.226 0 0 1 .045-.037c.003 0 .011-.008.018-.019.013-.02-.011-.06-.036-.06-.006 0-.011-.005-.011-.01 0-.006-.01-.01-.02-.01-.011 0-.02-.004-.02-.009 0-.007-.029-.02-.091-.04a.88.88 0 0 0-.27-.002m-6.454.328c-.09.186-.082.446.017.55l.032.035a.327.327 0 0 0 .094.079c.006 0 .01.003.01.008 0 .004.015.013.032.02.13.048.124-.506-.008-.637-.007-.008-.013-.017-.013-.022 0-.013-.1-.11-.114-.11-.007 0-.03.034-.05.077m4.629-.047c-.015.016-.032.03-.037.03-.005 0-.013.009-.016.02-.004.01-.01.02-.014.02-.003 0-.015.017-.026.037a.527.527 0 0 1-.03.053c-.076.102-.08.59-.005.59.015 0 .09-.043.09-.051 0-.005.005-.008.012-.008.022 0 .1-.095.137-.166.065-.127.052-.338-.031-.498-.035-.066-.042-.068-.08-.027m-6.063.082a.62.62 0 0 0-.252.156c-.04.039-.04.092 0 .092.004 0 .028.01.054.021.1.045.137.055.25.07.071.01.1.01.131.001a.289.289 0 0 1 .065-.012c.015 0 .029-.004.032-.01.004-.005.018-.01.031-.01.013 0 .025-.005.025-.01 0-.006.007-.01.015-.01a.185.185 0 0 0 .083-.052c.002-.005.008-.008.014-.008a.275.275 0 0 0 .088-.099c0-.013-.024-.042-.034-.042a.365.365 0 0 1-.053-.03.192.192 0 0 0-.07-.03c-.013 0-.023-.004-.023-.009 0-.022-.3-.038-.356-.019m7.275.002a.164.164 0 0 0-.044.019c-.004.004-.015.007-.024.007-.02 0-.07.023-.07.033 0 .004-.007.007-.015.007s-.015.005-.015.01c0 .006-.006.01-.014.01-.085 0-.007.132.11.187.022.01.041.02.044.024a.55.55 0 0 0 .252.047.688.688 0 0 0 .221-.048c.027-.008.048-.017.048-.021 0-.005.009-.008.02-.008.011 0 .02-.004.02-.01 0-.005.01-.01.021-.012.121-.018-.046-.181-.252-.247a1.03 1.03 0 0 0-.302.002m-1.736.024c-.15.033-.318.32-.332.57-.009.154.008.194.07.162.046-.024.057-.028.072-.028.008 0 .015-.005.015-.01 0-.006.006-.01.013-.01.007 0 .023-.01.035-.02a.094.094 0 0 1 .027-.02c.026 0 .118-.126.147-.202a.806.806 0 0 0 .013-.364c-.018-.076-.025-.085-.06-.078m-3.534.01c-.074.119-.026.464.079.575a.369.369 0 0 0 .106.086.412.412 0 0 0 .15.067c.074.03.044-.318-.042-.486-.039-.074-.154-.21-.178-.21-.006 0-.012-.004-.012-.01 0-.005-.006-.01-.015-.01-.008 0-.015-.004-.015-.01 0-.012-.066-.014-.073-.002m.685.2a.766.766 0 0 0 .032.45c.062.127.241.262.35.263.074.001-.004-.47-.09-.54a.491.491 0 0 1-.036-.048.467.467 0 0 0-.143-.133c-.008 0-.013-.003-.013-.007 0-.01-.05-.033-.071-.033-.012 0-.02.015-.03.048m2.124-.028a.556.556 0 0 0-.17.15c-.129.152-.223.592-.128.591.037 0 .178-.057.178-.072 0-.004.004-.008.01-.008.02 0 .1-.074.128-.12a.605.605 0 0 0 .078-.458c-.02-.113-.038-.128-.096-.083m-4.222.15c-.003.006-.015.01-.026.01a.095.095 0 0 0-.037.01l-.047.021c-.106.048-.262.201-.237.235.053.075.438.12.545.064a.097.097 0 0 1 .037-.009c.011 0 .02-.005.02-.01 0-.006.009-.01.019-.01.031 0 .128-.08.196-.16.029-.035.029-.08 0-.08-.008 0-.014-.004-.014-.008 0-.01-.05-.033-.07-.033a.044.044 0 0 1-.026-.008c-.033-.03-.344-.048-.36-.022m6.07.011c-.093.031-.165.069-.165.086 0 .048.175.214.225.214.008 0 .015.003.015.008 0 .01.003.01.116.036.078.018.18.02.234.006a2.63 2.63 0 0 1 .096-.021.274.274 0 0 0 .07-.021.055.055 0 0 1 .03-.009c.098-.001.028-.154-.104-.228l-.057-.032a.686.686 0 0 0-.46-.039m-5.594.33a.094.094 0 0 1-.042.01.638.638 0 0 0-.212.1c-.057.044-.137.142-.137.168 0 .012.063.041.135.063a.62.62 0 0 1 .063.022c.033.015.35.014.365 0a.056.056 0 0 1 .035-.013c.012 0 .025-.004.028-.01.004-.005.015-.01.026-.01.01 0 .02-.003.02-.008 0-.004.013-.013.03-.02.06-.028.18-.154.18-.192 0-.018-.094-.07-.163-.09a6.43 6.43 0 0 1-.071-.02.863.863 0 0 0-.257 0m5.209 0a.108.108 0 0 1-.047.01c-.018 0-.035.004-.039.01-.003.005-.013.01-.023.01-.052.001-.168.085-.134.097a.02.02 0 0 1 .012.017c0 .007.03.043.067.08a.351.351 0 0 0 .079.066c.007 0 .014.003.016.008a.48.48 0 0 0 .139.064c.095.028.36.015.433-.023a.097.097 0 0 1 .037-.009c.01 0 .022-.004.026-.01.003-.005.013-.01.023-.01.038-.001.054-.026.038-.057-.029-.056-.166-.183-.198-.183-.01 0-.019-.004-.02-.008-.021-.047-.356-.098-.41-.063m-4.297.18a.108.108 0 0 1-.047.01.138.138 0 0 0-.05.01 1.285 1.285 0 0 1-.1.042c-.018.008-.033.017-.033.021 0 .005-.007.008-.015.008s-.015.004-.015.01c0 .005-.006.01-.014.01a.537.537 0 0 0-.146.145c0 .009-.004.015-.008.015a.39.39 0 0 0-.073.137c0 .043.365.074.404.035.006-.006.026-.011.044-.011a.139.139 0 0 0 .051-.01 7.31 7.31 0 0 1 .057-.027.53.53 0 0 0 .27-.261c.033-.065.034-.098.003-.108-.073-.026-.301-.043-.328-.025m3.416 0a.126.126 0 0 1-.052.01c-.02 0-.04.004-.043.01-.003.005-.015.01-.026.01-.01 0-.02.006-.02.013 0 .023.032.107.04.107a.589.589 0 0 0 .186.2c.008 0 .015.004.015.009 0 .004.016.014.035.022.02.007.035.017.035.022 0 .004.01.008.02.008.012 0 .029.004.038.009.113.058.483.046.483-.015 0-.06-.097-.203-.18-.265a1.044 1.044 0 0 1-.05-.04.794.794 0 0 0-.255-.1.656.656 0 0 0-.226 0m-2.208.156c-.028.028-.004.075.038.075.009 0 .016.003.016.007s.015.014.033.02a.65.65 0 0 1 .05.023c.01.005.024.01.033.01.008 0 .023.004.032.009.024.012.061.027.098.039.073.025.073.024.02.038a.865.865 0 0 1-.17.014c-.155 0-.199.018-.167.069.01.016.272.017.357.001a1.36 1.36 0 0 1 .496-.01c.167.024.418.024.425 0 .018-.054.005-.06-.133-.06-.07 0-.154-.007-.187-.014l-.06-.012.034-.017a.16.16 0 0 1 .053-.017c.01 0 .026-.004.036-.01a3.314 3.314 0 0 0 .233-.1c.023-.012.025-.07.003-.072-.032-.002-.058.003-.068.012a.046.046 0 0 1-.028.01c-.01 0-.018.004-.018.01 0 .005-.009.01-.02.01a.154.154 0 0 0-.055.02.154.154 0 0 1-.055.02c-.01 0-.022.004-.025.01-.003.005-.017.01-.03.01-.013 0-.027.004-.03.01-.003.005-.017.01-.03.01-.013 0-.027.005-.03.01-.004.006-.022.01-.04.01-.019 0-.037.005-.04.01-.004.006-.022.01-.04.01-.02 0-.037.005-.04.01-.008.013-.122.014-.13.002-.003-.005-.023-.012-.043-.015-.09-.014-.113-.02-.113-.028 0-.005-.014-.009-.03-.009a.132.132 0 0 1-.05-.01l-.04-.02a.097.097 0 0 0-.034-.01.14.14 0 0 1-.042-.014 3.3 3.3 0 0 0-.13-.056c-.045-.02-.063-.02-.079-.005m-.476.045a.704.704 0 0 0-.409.265c-.036.04-.094.176-.08.19.032.031.237.047.336.026l.097-.022c.057-.012.216-.086.216-.1 0-.004.005-.008.012-.008.014 0 .093-.081.118-.12a.822.822 0 0 1 .033-.046.09.09 0 0 0 .017-.032c0-.004.01-.026.02-.048.034-.066.027-.082-.046-.103a1.275 1.275 0 0 0-.314-.002m1.858.002a1.773 1.773 0 0 0-.053.014c-.093.026.132.329.298.401a.464.464 0 0 0 .1.037l.099.022c.104.023.335.01.354-.019.012-.017-.045-.166-.063-.166a.588.588 0 0 0-.18-.18.01.01 0 0 1-.01-.01c0-.006-.006-.011-.014-.011-.009 0-.015-.004-.015-.01 0-.005-.007-.01-.015-.01a.148.148 0 0 1-.048-.018.446.446 0 0 0-.078-.03 6.632 6.632 0 0 1-.076-.023 1.214 1.214 0 0 0-.3.003" fill="#f7b61f" fill-rule="evenodd" style="stroke-width:.0400672" transform="translate(-.805 -.713)"/>
</svg>
